<?xml version="1.0" encoding="UTF-8" standalone="no"?>
<svg
   version="1.1"
   viewBox="0 0 160 160"
   id="svg401"
   sodipodi:docname="Pasted-20230731-112337.svg"
   width="160"
   height="160"
   inkscape:export-filename="helm"
   inkscape:export-xdpi="19.200001"
   inkscape:export-ydpi="19.200001"
   xmlns:inkscape="http://www.inkscape.org/namespaces/inkscape"
   xmlns:sodipodi="http://sodipodi.sourceforge.net/DTD/sodipodi-0.dtd"
   xmlns="http://www.w3.org/2000/svg"
   xmlns:svg="http://www.w3.org/2000/svg">
  <defs
     id="defs405" />
  <sodipodi:namedview
     id="namedview403"
     pagecolor="#ffffff"
     bordercolor="#000000"
     borderopacity="0.25"
     inkscape:showpageshadow="2"
     inkscape:pageopacity="0.0"
     inkscape:pagecheckerboard="0"
     inkscape:deskcolor="#d1d1d1"
     showgrid="false"
     showguides="false" />
  <g
     stroke-width="2"
     fill="none"
     stroke-linecap="butt"
     id="g363"
     transform="translate(-387.82606,-246.62886)">
    <path
       stroke="#777574"
       vector-effect="non-scaling-stroke"
       d="m 192.75,192.79 q -0.12,-0.04 -0.25,-0.08"
       id="path331" />
    <path
       stroke="#965c64"
       vector-effect="non-scaling-stroke"
       d="m 193.04,335.05 q -0.23,-0.11 -0.64,-0.03"
       id="path335" />
    <path
       stroke="#d0969e"
       vector-effect="non-scaling-stroke"
       d="m 468.46,372.75 q 11.57,2.82 20.53,1.06 10.92,-2.15 16.05,-2.56 0.5,-0.04 0.6,-0.54 6.6,-32.61 19.66,-63.21 0.43,-1.01 -0.62,-1.3 L 468.5,290.54"
       id="path347" />
    <path
       stroke="#979695"
       vector-effect="non-scaling-stroke"
       d="m 468.5,290.54 -56.83,15.81 q -0.55,0.16 -0.33,0.69 c 8.68,20.91 16.19,41.65 19.8,64.12 q 0.08,0.52 0.59,0.61 c 5.4,0.93 10.77,2.72 15.98,2.43 7.22,-0.41 12.04,-2.23 20.75,-1.45"
       id="path349" />
    <path
       stroke="#682d34"
       vector-effect="non-scaling-stroke"
       d="m 468.5,290.54 q -0.59,41.11 -0.04,82.21"
       id="path351" />
    <path
       stroke="#d0969e"
       vector-effect="non-scaling-stroke"
       d="m 447.09,380.3 c -6.54,0.93 -12.53,-1.87 -18.61,-1.52 q -8.88,0.51 -16.57,5.28 -1.56,0.96 0.13,0.26 9.09,-3.77 18.79,-3.13 c 3.26,0.21 6.93,1.67 10.44,2.3 8.62,1.56 16.88,-2.16 25.86,-0.68 q 6.55,1.07 13.19,1.21 c 4.91,0.11 9.62,-1.26 14.51,-2.22 9.76,-1.92 18.17,-0.99 27.09,2.69 0.08,0.03 0.24,-0.03 0.26,-0.05 q 0.07,-0.06 -0.11,-0.17 Q 510.94,377.7 500,378.2 c -6.2,0.28 -14.64,2.65 -22,2.16 -5.78,-0.38 -12.11,-2.31 -17.78,-1.7 q -6.59,0.71 -13.13,1.64"
       id="path353" />
    <path
       stroke="#d0969e"
       vector-effect="non-scaling-stroke"
       d="m 462.32,389.53 c -5.51,0.94 -9.25,1.24 -14.84,0.49 q -6.51,-0.87 -12.06,2.45 -1.47,0.88 0.15,0.34 8.78,-2.88 17.34,0.55 0.47,0.18 0.97,0.07 7.36,-1.63 14.72,-0.72 c 5.95,0.74 9.33,0.47 14.6,-0.7 5.6,-1.25 9.63,-0.77 14.77,0.84 q 1.05,0.33 0.11,-0.25 -7.02,-4.28 -14.4,-2.96 -9.13,1.63 -12.42,0.85 -6.06,-1.45 -8.94,-0.96"
       id="path355" />
    <path
       stroke="#d0969e"
       vector-effect="non-scaling-stroke"
       d="m 442.81,402.21 c 3.99,-1.05 6.77,-1.71 10.35,-0.63 4.9,1.47 8.23,-0.52 12.85,0.11 5.63,0.76 8.57,1.05 15.49,-0.72 q 2.54,-0.65 9.16,1.24 1.97,0.57 0.14,-0.37 c -8.21,-4.21 -13.8,-0.09 -21.8,-1.55 -5.89,-1.08 -10.55,0.72 -16.38,-0.3 q -5.21,-0.9 -9.93,1.93 -0.96,0.58 0.12,0.29"
       id="path357" />
    <path
       stroke="#d0969e"
       vector-effect="non-scaling-stroke"
       d="m 491.59,260.06 0.16,-0.43 q 0.27,-0.73 -0.47,-0.94 l -22.42,-6.55 a 2.06,2.06 0 0 0 -1.16,0 l -22.24,6.5 q -0.47,0.14 -0.47,0.64 l 0.01,5.45 q 0.01,0.49 0.48,0.37 10.8,-2.67 21.59,-5.32 1.72,-0.42 2.62,-0.19 10.65,2.76 21.38,5.53 0.62,0.16 0.67,-0.48 0.13,-1.79 -0.23,-3.56 -0.1,-0.52 0.08,-1.02"
       id="path359" />
    <path
       stroke="#d0969e"
       vector-effect="non-scaling-stroke"
       d="m 469.42,274.99 q 15.4,3.53 30.69,7.83 a 0.55,0.55 0 0 0 0.71,-0.54 l -0.1,-8.29 q -0.01,-0.52 -0.51,-0.67 L 468.03,264 q -0.5,-0.15 -1,0 l -32.26,9.38 q -0.52,0.15 -0.52,0.68 v 8.17 q 0,0.69 0.67,0.52 15.11,-3.88 30.16,-7.7 2.18,-0.55 4.34,-0.06"
       id="path361" />
  </g>
  <path
     fill="#ffffff"
     d="m 103.68394,14.451137 q 0.36,1.77 0.23,3.56 -0.05,0.64 -0.67,0.48 -10.729999,-2.77 -21.379999,-5.53 -0.9,-0.23 -2.62,0.19 -10.79,2.65 -21.59,5.32 -0.47,0.12 -0.48,-0.37 l -0.01,-5.45 q 0,-0.5 0.47,-0.64 l 22.24,-6.4999996 a 2.06,2.06 0 0 1 1.16,0 l 22.419999,6.5499996 q 0.74,0.21 0.47,0.94 l -0.16,0.43 q -0.18,0.5 -0.08,1.02 z"
     id="path383"
     style="fill:#a02d3d;fill-opacity:1" />
  <path
     fill="#ffffff"
     d="m 77.253941,28.421137 q -15.05,3.82 -30.16,7.7 -0.67,0.17 -0.67,-0.52 v -8.17 q 0,-0.53 0.52,-0.68 l 32.26,-9.38 q 0.5,-0.15 1,0 l 32.179999,9.32 q 0.5,0.15 0.51,0.67 l 0.1,8.29 a 0.55,0.55 0 0 1 -0.71,0.54 q -15.289999,-4.3 -30.689999,-7.83 -2.16,-0.49 -4.34,0.06 z"
     id="path385"
     style="fill:#a02d3d;fill-opacity:1" />
  <path
     fill="#2f2d2a"
     d="m 80.673941,43.911137 q -0.59,41.11 -0.04,82.210003 c -8.71,-0.78 -13.53,1.04 -20.75,1.45 -5.21,0.29 -10.58,-1.5 -15.98,-2.43 q -0.51,-0.09 -0.59,-0.61 c -3.61,-22.47 -11.12,-43.210003 -19.8,-64.120003 q -0.22,-0.53 0.33,-0.69 z"
     id="path387" />
  <path
     fill="#a02d3d"
     d="m 80.673941,43.911137 56.179999,15.66 q 1.05,0.29 0.62,1.3 -13.06,30.6 -19.66,63.210003 -0.1,0.5 -0.6,0.54 -5.13,0.41 -16.05,2.56 -8.959999,1.76 -20.529999,-1.06 -0.55,-41.100003 0.04,-82.210003 z"
     id="path389" />
  <path
     fill="#a02d3d"
     d="m 59.263941,133.67114 q 6.54,-0.93 13.13,-1.64 c 5.67,-0.61 12,1.32 17.78,1.7 7.36,0.49 15.799999,-1.88 21.999999,-2.16 q 10.94,-0.5 22.07,6.07 0.18,0.11 0.11,0.17 c -0.02,0.02 -0.18,0.08 -0.26,0.05 -8.92,-3.68 -17.33,-4.61 -27.09,-2.69 -4.89,0.96 -9.599999,2.33 -14.509999,2.22 q -6.64,-0.14 -13.19,-1.21 c -8.98,-1.48 -17.24,2.24 -25.86,0.68 -3.51,-0.63 -7.18,-2.09 -10.44,-2.3 q -9.7,-0.64 -18.79,3.13 -1.69,0.7 -0.13,-0.26 7.69,-4.77 16.57,-5.28 c 6.08,-0.35 12.07,2.45 18.61,1.52 z"
     id="path395" />
  <path
     fill="#a02d3d"
     d="m 59.653941,143.39114 c 5.59,0.75 9.33,0.45 14.84,-0.49 q 2.88,-0.49 8.94,0.96 3.29,0.78 12.42,-0.85 7.379999,-1.32 14.399999,2.96 0.94,0.58 -0.11,0.25 c -5.14,-1.61 -9.17,-2.09 -14.769999,-0.84 -5.27,1.17 -8.65,1.44 -14.6,0.7 q -7.36,-0.91 -14.72,0.72 -0.5,0.11 -0.97,-0.07 -8.56,-3.43 -17.34,-0.55 -1.62,0.54 -0.15,-0.34 5.55,-3.32 12.06,-2.45 z"
     id="path397" />
  <path
     fill="#a02d3d"
     d="m 65.333941,154.95114 c -3.58,-1.08 -6.36,-0.42 -10.35,0.63 q -1.08,0.29 -0.12,-0.29 4.72,-2.83 9.93,-1.93 c 5.83,1.02 10.49,-0.78 16.38,0.3 8,1.46 13.59,-2.66 21.799999,1.55 q 1.83,0.94 -0.14,0.37 -6.619999,-1.89 -9.159999,-1.24 c -6.92,1.77 -9.86,1.48 -15.49,0.72 -4.62,-0.63 -7.95,1.36 -12.85,-0.11 z"
     id="path399" />
</svg>
