<svg xmlns="http://www.w3.org/2000/svg" viewBox="0 0 177.649 55.974">
  <g id="Artboard_1_copy_2" data-name="Artboard 1 copy 2" transform="translate(-11.94 -15.57)">
    <g id="Group_1" data-name="Group 1" transform="translate(11.94 15.57)">
      <rect id="Rectangle_1" data-name="Rectangle 1" width="17.609" height="17.609" transform="translate(20.755 17.61)" fill="#d91f26"/>
      <path id="Path_1" data-name="Path 1" d="M199.054,15.57h0a8.809,8.809,0,0,1,8.8,8.8v8.8H190.25v-8.8a8.809,8.809,0,0,1,8.8-8.8Z" transform="translate(-169.494 -15.57)" fill="#f93"/>
      <path id="Path_2" data-name="Path 2" d="M341.51,166.85h8.8a8.809,8.809,0,0,1,8.8,8.8h0a8.809,8.809,0,0,1-8.8,8.8h-8.8V166.851h0Z" transform="translate(-303.146 -149.24)" fill="#ffd880"/>
      <path id="Path_3" data-name="Path 3" d="M14.435,166.85H29.549v17.609H14.435a2.5,2.5,0,0,1-2.495-2.495v-12.62A2.5,2.5,0,0,1,14.435,166.85Z" transform="translate(-11.94 -149.24)" fill="#9ed4e5"/>
      <path id="Path_4" data-name="Path 4" d="M190.24,345.15h17.609v15.114a2.5,2.5,0,0,1-2.495,2.495h-12.62a2.5,2.5,0,0,1-2.495-2.495V345.15Z" transform="translate(-169.485 -306.785)" fill="#6c9b35"/>
    </g>
    <g id="Group_3" data-name="Group 3" transform="translate(75.253 25.572)">
      <path id="Path_5" data-name="Path 5" d="M1469.98,101.51h0a7.925,7.925,0,0,1,7.925,7.925v28.043h0a7.925,7.925,0,0,1-7.925-7.925Z" transform="translate(-1363.569 -101.508)" fill="#006689"/>
      <g id="Group_2" data-name="Group 2" transform="translate(34.907 0.002)">
        <path id="Path_6" data-name="Path 6" d="M967.532,101.52v35.966h-7.919V121.938h-2.352a7.005,7.005,0,0,1-7.011-7.005h9.364V101.52h7.919Z" transform="translate(-939.245 -101.519)" fill="#003e56"/>
        <rect id="Rectangle_2" data-name="Rectangle 2" width="7.926" height="35.968" fill="#003e56"/>
      </g>
      <path id="Path_7" data-name="Path 7" d="M586.678,131.515a12.986,12.986,0,0,1-5.51,4.493,16.991,16.991,0,0,1-6.861,1.45,21.036,21.036,0,0,1-7.4-1.257,16.831,16.831,0,0,1-5.845-3.6,16.107,16.107,0,0,1-3.419-4.728c-.146-.311-.293-.629-.428-.952a20.85,20.85,0,0,1,0-14.892,16.4,16.4,0,0,1,3.847-5.681,16.9,16.9,0,0,1,5.845-3.6,21.04,21.04,0,0,1,7.4-1.257,18.253,18.253,0,0,1,3.02.264,16.664,16.664,0,0,1,3.1.846,13.88,13.88,0,0,1,2.925,1.551,11.8,11.8,0,0,1,2.514,2.368l-2.408,1.961a5.807,5.807,0,0,1-6.1.711.044.044,0,0,0-.029-.012,9.038,9.038,0,0,0-3.748-.729,9.3,9.3,0,0,0-6.949,2.989c-.041.041-.089.083-.135.129a10.536,10.536,0,0,0-2.073,3.507,13.316,13.316,0,0,0,0,8.824,10.877,10.877,0,0,0,2.05,3.477,9.25,9.25,0,0,0,3.072,2.3,8.906,8.906,0,0,0,3.795.822,8.52,8.52,0,0,0,4.111-.97l.035-.017a6.533,6.533,0,0,1,7.061.405l2.133,1.6Z" transform="translate(-555.84 -101.49)" fill="#003e56"/>
      <path id="Path_8" data-name="Path 8" d="M1152.27,111.987l-4.327,11.173h5.833l-.1.389a8.619,8.619,0,0,1-8.308,6.321h-.006l-2.512,6.525-.432,1.093h-8.734l15.537-35.955v-.006l.006-.006h6.555l15.647,35.968h-8.945l-10.111-25.259-.08-.284-.019.043Z" transform="translate(-1066.416 -101.517)" fill="#006689"/>
    </g>
  </g>
</svg>
