<svg width="182" height="41" fill="none" xmlns="http://www.w3.org/2000/svg"><path d="M53.698 9.06c0-.864.7-1.56 1.56-1.56h8.937c1.99 0 3.665.357 5.01 1.076 1.35.718 2.357 1.684 3.025 2.896.668 1.217 1.002 2.576 1.002 4.082 0 1.505-.334 2.869-1.002 4.081-.668 1.217-1.68 2.183-3.025 2.897-1.35.718-3.02 1.075-5.01 1.075h-7.29v9.925a.21.21 0 0 1-.21.21H55.26c-.865 0-1.56-.7-1.56-1.56V9.061Zm10.497 11.632c1.917 0 3.354-.466 4.301-1.404.947-.934 1.423-2.183 1.423-3.734 0-1.551-.476-2.8-1.423-3.739-.947-.933-2.384-1.404-4.301-1.404h-7.29v10.277h7.29v.004ZM94.244 32.905c-1.336-.851-2.37-2.027-3.098-3.537-.727-1.506-1.093-3.208-1.093-5.102 0-1.895.366-3.597 1.093-5.102.728-1.506 1.762-2.686 3.098-3.537 1.336-.851 2.878-1.277 4.63-1.277 2.284 0 4.137.618 5.56 1.858a7.355 7.355 0 0 1 2.018 2.855c.407 1.025-.343 2.137-1.441 2.137h-.023c-.627 0-1.208-.375-1.432-.96a4.843 4.843 0 0 0-1.414-2.028c-.86-.727-1.949-1.094-3.263-1.094-1.775 0-3.152.655-4.136 1.968s-1.478 3.038-1.478 5.175.494 3.862 1.478 5.175c.984 1.314 2.36 1.968 4.136 1.968 1.314 0 2.407-.37 3.281-1.112.641-.54 1.107-1.226 1.409-2.06.22-.599.806-.983 1.442-.983a1.557 1.557 0 0 1 1.441 2.146 7.384 7.384 0 0 1-2.086 2.865c-1.497 1.276-3.322 1.912-5.487 1.912-1.757.01-3.299-.416-4.635-1.267ZM136.418 32.905c-1.336-.851-2.37-2.027-3.098-3.537-.727-1.506-1.093-3.208-1.093-5.102 0-1.895.366-3.597 1.093-5.102.728-1.506 1.762-2.686 3.098-3.537 1.336-.851 2.878-1.277 4.631-1.277 2.283 0 4.136.618 5.559 1.858a7.355 7.355 0 0 1 2.018 2.855c.407 1.025-.343 2.137-1.441 2.137h-.023c-.627 0-1.208-.375-1.432-.96-.312-.82-.783-1.497-1.414-2.028-.861-.727-1.95-1.094-3.263-1.094-1.775 0-3.153.655-4.136 1.968-.984 1.313-1.478 3.038-1.478 5.175s.494 3.862 1.478 5.175c.983 1.314 2.361 1.968 4.136 1.968 1.313 0 2.407-.37 3.281-1.112.641-.54 1.107-1.226 1.409-2.06.22-.599.806-.983 1.442-.983a1.557 1.557 0 0 1 1.441 2.146 7.386 7.386 0 0 1-2.087 2.865c-1.496 1.276-3.322 1.912-5.486 1.912-1.757.01-3.299-.416-4.635-1.267ZM109.801 7.5c.846 0 1.533.687 1.533 1.533v1.977a.21.21 0 0 1-.211.21h-1.29a1.56 1.56 0 0 1-1.561-1.56v-.627a1.524 1.524 0 0 1 1.529-1.533Zm.032 7.29h1.29a.21.21 0 0 1 .211.21v18.536a.21.21 0 0 1-.211.21h-1.29a1.56 1.56 0 0 1-1.561-1.56V16.35a1.557 1.557 0 0 1 1.561-1.56ZM128.543 7.5c.846 0 1.533.687 1.533 1.533v1.977a.21.21 0 0 1-.211.21h-1.29c-.865 0-1.56-.7-1.56-1.56v-.627c0-.85.686-1.533 1.528-1.533Zm.032 7.29h1.29a.21.21 0 0 1 .211.21v18.536a.21.21 0 0 1-.211.21h-1.29c-.865 0-1.56-.7-1.56-1.56V16.35c0-.86.7-1.56 1.56-1.56Z" fill="#384765"/><path d="M170.846 26.233H158.67l-2.562 6.516c-.233.6-.81.988-1.455.988h-2.05a.21.21 0 0 1-.192-.288l10.204-24.983c.238-.586.809-.97 1.446-.97h1.4a1.56 1.56 0 0 1 1.446.97l10.203 24.983a.21.21 0 0 1-.192.288h-2.05c-.64 0-1.217-.393-1.455-.988l-2.567-6.516Zm-1.166-2.915-4.919-12.5-4.919 12.5h9.838ZM180.359 7.5h.082c.865 0 1.561.7 1.561 1.56v24.472a.21.21 0 0 1-.211.21h-1.437c-.865 0-1.56-.7-1.56-1.56V9.061c0-.86.7-1.56 1.565-1.56Z" fill="#10997F"/><path d="M119.849 11.02a3.65 3.65 0 0 0-.018.379v4.122h3.812a1.533 1.533 0 0 1 0 3.066h-3.812v15.164h-1.501c-.865 0-1.56-.7-1.56-1.56V18.578h-.819a1.533 1.533 0 1 1 0-3.066h.819V11.01c0-1.958 1.011-3.83 2.796-4.644 1.208-.55 2.855-.582 4.077-.028.375.17.695.398.883.778a1.54 1.54 0 0 1-.183 1.624c-.49.618-1.204.627-1.908.421-.678-.201-1.355-.26-1.908.252-.444.412-.623 1.025-.678 1.606ZM87.673 19.04c-.554-1.83-1.945-3.354-3.761-4.109-2.32-.96-5.184-.837-7.376.403l-.096.055c-.421.247-.81.544-1.172.865-.846.75-.576 2.141.472 2.567a1.541 1.541 0 0 0 1.66-.334c.572-.554 1.245-.934 2.105-1.149 2.549-.636 4.32.97 4.791 1.753.32.54.54 1.336.366 1.958-.091.339-.316.586-.622.75-.632.339-2.023.348-2.727.417-1.853.174-3.757.155-5.564.654-2.155.595-3.88 2.306-4.228 4.512-.417 2.63 1.135 4.983 3.468 6.067 1.551.723 3.4 1.034 5.047.577 3.084-.856 4.58-3.03 4.608-3.075l-.005 1.199a1.56 1.56 0 0 0 1.56 1.565h1.46a.208.208 0 0 0 .21-.202c.024-1.597.17-12.14.042-13.352a6.977 6.977 0 0 0-.238-1.12Zm-3.706 9.834c-.705 1.075-1.771 1.857-3.121 2.246-2.22.64-6.19-.146-5.862-3.18.371-3.423 5.651-2.896 8.05-3.18.654-.078 1.326-.179 1.94-.43l.04.009c.023.041.042.064.046.11.1.723-.1 1.606-.242 2.32a5.928 5.928 0 0 1-.851 2.105ZM19.093 14.807a3.288 3.288 0 0 0 2.527-.102c.8-.371 1.41-1.035 1.712-1.859a3.269 3.269 0 0 0-.107-2.527 3.287 3.287 0 0 0-1.859-1.712 3.287 3.287 0 0 0-2.527.102 3.303 3.303 0 0 0 .254 6.097Zm.005-3.517a1.202 1.202 0 0 1 1.142-.79 1.2 1.2 0 0 1 1.078.697 1.201 1.201 0 0 1-1.102 1.707 1.203 1.203 0 0 1-1.117-1.614ZM30.586 23.85l-3.161-7.043a1.044 1.044 0 0 0-.946-.62l-12.585-.136a1.05 1.05 0 0 0-.96.6L9.62 23.62c-.156.322-.126.702.059 1.01.897 1.492 2.424 2.39 4.097 2.41 1.673.019 3.224-.854 4.151-2.332.21-.332.22-.756.024-1.093l-1.897-3.263a1.064 1.064 0 0 0-.897-.522 1.053 1.053 0 0 0-1.024.78c-.074.274-.035.556.107.796l1.546 2.658a2.664 2.664 0 0 1-1.985.873c-.78-.01-1.493-.351-2.015-.97l2.76-5.81 4.571.049-.122 11.58-.853-.01a.637.637 0 0 0-.644.629l-.01.829a.637.637 0 0 0 .63.644l3.809.039a.635.635 0 0 0 .644-.634l.01-.825a.635.635 0 0 0-.635-.643l-.848-.01.122-11.58 4.57.05 2.634 5.867c-.537.605-1.259.931-2.034.927a2.656 2.656 0 0 1-1.966-.913l1.605-2.624a1.05 1.05 0 0 0-.351-1.443 1.05 1.05 0 0 0-1.444.346l-1.966 3.22a1.048 1.048 0 0 0 0 1.092c.898 1.497 2.43 2.404 4.102 2.42 1.669.019 3.22-.85 4.146-2.323.176-.287.215-.668.069-.995Z" fill="#384765"/><path opacity=".1" d="M6.084 35.196a19.994 19.994 0 0 0 4.102 2.98.641.641 0 0 0 .878-.278l1.395-2.746a.642.642 0 0 0-.269-.849 15.781 15.781 0 0 1-3.043-2.224.635.635 0 0 0-.888.01l-2.185 2.18a.65.65 0 0 0 .01.927Z" fill="#10997F"/><path opacity=".2" d="M.011 24.187a20.268 20.268 0 0 0 1.57 4.819.644.644 0 0 0 .874.293l2.751-1.405a.639.639 0 0 0 .283-.844 15.879 15.879 0 0 1-1.176-3.58.637.637 0 0 0-.721-.517l-3.044.483a.648.648 0 0 0-.537.75Z" fill="#10997F"/><path opacity=".3" d="m5.206 12.788-2.741-1.4a.64.64 0 0 0-.873.293 20.307 20.307 0 0 0-1.57 4.814.644.644 0 0 0 .526.751c.898.146 2.502.405 3.249.522a.419.419 0 0 0 .473-.341c.248-1.342.663-2.61 1.214-3.795a.633.633 0 0 0-.278-.844Z" fill="#10997F"/><path opacity=".4" d="m12.478 5.549-1.4-2.751a.644.644 0 0 0-.878-.278 20.403 20.403 0 0 0-4.097 2.966.645.645 0 0 0-.01.921l2.18 2.19a.64.64 0 0 0 .888.01 16.141 16.141 0 0 1 3.049-2.21.642.642 0 0 0 .268-.848Z" fill="#10997F"/><path opacity=".5" d="M22.6.164a20.216 20.216 0 0 0-5.064-.01.642.642 0 0 0-.546.742l.478 3.043c.054.342.37.571.712.532a15.94 15.94 0 0 1 3.766 0 .638.638 0 0 0 .712-.527L23.14.905a.641.641 0 0 0-.542-.74Z" fill="#10997F"/><path opacity=".6" d="M33.93 5.52a20.171 20.171 0 0 0-4.097-2.986.641.641 0 0 0-.878.278l-1.4 2.742a.644.644 0 0 0 .264.848 16.167 16.167 0 0 1 3.039 2.224.64.64 0 0 0 .887-.004l2.186-2.18a.645.645 0 0 0 0-.923Z" fill="#10997F"/><path opacity=".7" d="M39.989 16.533a20.252 20.252 0 0 0-1.566-4.819.644.644 0 0 0-.873-.292l-2.751 1.4a.639.639 0 0 0-.283.843 15.868 15.868 0 0 1 1.17 3.58c.069.342.38.571.722.518l3.044-.478a.645.645 0 0 0 .537-.752Z" fill="#10997F"/><path opacity=".8" d="m34.799 27.898 2.746 1.4a.644.644 0 0 0 .873-.292 20.36 20.36 0 0 0 1.56-4.795.642.642 0 0 0-.53-.751c-.898-.146-2.503-.405-3.25-.522a.42.42 0 0 0-.473.341 15.957 15.957 0 0 1-1.21 3.776.639.639 0 0 0 .284.843Z" fill="#10997F"/><path opacity=".9" d="m27.53 35.147 1.406 2.75c.16.323.56.45.878.279a20.45 20.45 0 0 0 4.092-2.97.645.645 0 0 0 .01-.923l-2.18-2.185a.639.639 0 0 0-.888-.01 15.989 15.989 0 0 1-3.049 2.21.642.642 0 0 0-.268.849Z" fill="#10997F"/><path d="M17.517 40.537c1.687.215 3.385.215 5.063.005a.642.642 0 0 0 .546-.742l-.483-3.043a.641.641 0 0 0-.712-.532c-1.23.146-2.493.156-3.766.005a.638.638 0 0 0-.712.527l-.483 3.038c-.053.361.19.698.547.742Z" fill="#10997F"/></svg>