<svg version="1.1" viewBox="0.0 0.0 960.0 540.0" fill="none" stroke="none" stroke-linecap="square" stroke-miterlimit="10" xmlns:xlink="http://www.w3.org/1999/xlink" xmlns="http://www.w3.org/2000/svg"><clipPath id="g28e6f7e0431_0_53.0"><path d="m0 0l960.0 0l0 540.0l-960.0 0l0 -540.0z" clip-rule="nonzero"/></clipPath><g clip-path="url(#g28e6f7e0431_0_53.0)"><path fill="#ffffff" d="m0 0l960.0 0l0 540.0l-960.0 0z" fill-rule="evenodd"/><path fill="#d9d9d9" d="m6.9409447 224.12636l0 0c0 -10.222549 8.287011 -18.509567 18.509556 -18.509567l142.79192 0c4.9090424 0 9.61702 1.950119 13.088226 5.4213257c3.471222 3.471222 5.4213257 8.179199 5.4213257 13.088242l0 74.035995c0 10.222565 -8.287018 18.509552 -18.509552 18.509552l-142.79192 0c-10.222545 0 -18.509556 -8.286987 -18.509556 -18.509552z" fill-rule="evenodd"/><path fill="#000000" d="m29.81477 254.24435l0 -19.078125l3.84375 0l0 19.078125l-3.84375 0zm20.06221 0l-3.65625 0l0 -7.046875q0 -2.25 -0.234375 -2.90625q-0.234375 -0.65625 -0.765625 -1.015625q-0.515625 -0.375 -1.265625 -0.375q-0.953125 0 -1.703125 0.53125q-0.75 0.515625 -1.03125 1.375q-0.28125 0.859375 -0.28125 3.171875l0 6.265625l-3.65625 0l0 -13.828125l3.390625 0l0 2.03125q1.8125 -2.34375 4.5625 -2.34375q1.203125 0 2.203125 0.4375q1.015625 0.4375 1.515625 1.125q0.515625 0.671875 0.71875 1.53125q0.203125 0.859375 0.203125 2.453125l0 8.59375zm2.4233246 -3.9375l3.671875 -0.5625q0.234375 1.0625 0.953125 1.625q0.71875 0.546875 2.0 0.546875q1.421875 0 2.140625 -0.515625q0.46875 -0.375 0.46875 -0.984375q0 -0.421875 -0.25 -0.6875q-0.28125 -0.265625 -1.234375 -0.484375q-4.421875 -0.96875 -5.609375 -1.78125q-1.640625 -1.125 -1.640625 -3.109375q0 -1.796875 1.421875 -3.015625q1.421875 -1.234375 4.40625 -1.234375q2.828125 0 4.203125 0.9375q1.3906212 0.921875 1.9062462 2.71875l-3.4374962 0.640625q-0.234375 -0.796875 -0.859375 -1.21875q-0.609375 -0.4375 -1.75 -0.4375q-1.4375 0 -2.0625 0.390625q-0.421875 0.296875 -0.421875 0.75q0 0.390625 0.359375 0.65625q0.5 0.375 3.421875 1.046875q2.921875 0.65625 4.078121 1.609375q1.140625 0.984375 1.140625 2.71875q0 1.90625 -1.5937462 3.28125q-1.578125 1.359375 -4.6875 1.359375q-2.828125 0 -4.484375 -1.140625q-1.640625 -1.15625 -2.140625 -3.109375zm22.449932 -9.890625l0 2.921875l-2.5 0l0 5.5625q0 1.703125 0.0625 1.984375q0.078125 0.28125 0.328125 0.46875q0.265625 0.171875 0.625 0.171875q0.515625 0 1.46875 -0.359375l0.3125 2.84375q-1.265625 0.546875 -2.890625 0.546875q-0.984375 0 -1.78125 -0.328125q-0.796875 -0.328125 -1.171875 -0.859375q-0.359375 -0.53125 -0.5 -1.421875q-0.125 -0.640625 -0.125 -2.578125l0 -6.03125l-1.671875 0l0 -2.921875l1.671875 0l0 -2.734375l3.671875 -2.140625l0 4.875l2.5 0zm6.0486145 13.828125l-3.671875 0l0 -13.828125l3.40625 0l0 1.96875q0.875 -1.390625 1.5625 -1.828125q0.703125 -0.453125 1.578125 -0.453125q1.25 0 2.421875 0.703125l-1.140625 3.1875q-0.921875 -0.609375 -1.71875 -0.609375q-0.765625 0 -1.296875 0.421875q-0.53125 0.421875 -0.84375 1.53125q-0.296875 1.109375 -0.296875 4.640625l0 4.265625zm15.9673 0l0 -2.0625q-0.765625 1.09375 -2.0 1.734375q-1.21875 0.640625 -2.578125 0.640625q-1.40625 0 -2.515625 -0.609375q-1.09375 -0.609375 -1.59375 -1.71875q-0.5 -1.109375 -0.5 -3.0625l0 -8.75l3.671875 0l0 6.359375q0 2.90625 0.1875 3.578125q0.203125 0.65625 0.734375 1.046875q0.546875 0.375 1.359375 0.375q0.9375 0 1.671875 -0.515625q0.75 -0.515625 1.015625 -1.28125q0.28125 -0.765625 0.28125 -3.71875l0 -5.84375l3.65625 0l0 13.828125l-3.390625 0zm19.235825 -9.734375l-3.609375 0.65625q-0.1875 -1.09375 -0.828125 -1.640625q-0.640625 -0.546875 -1.671875 -0.546875q-1.359375 0 -2.171875 0.953125q-0.8125 0.9375 -0.8125 3.15625q0 2.453125 0.8125 3.46875q0.828125 1.015625 2.21875 1.015625q1.046875 0 1.703125 -0.59375q0.671875 -0.59375 0.953125 -2.03125l3.578125 0.609375q-0.546875 2.46875 -2.140625 3.734375q-1.59375 1.265625 -4.25 1.265625q-3.03125 0 -4.84375 -1.90625q-1.796875 -1.921875 -1.796875 -5.296875q0 -3.4375 1.796875 -5.34375q1.8125 -1.90625 4.90625 -1.90625q2.515625 0 4.0 1.09375q1.5 1.078125 2.15625 3.3125zm9.106186 -4.09375l0 2.921875l-2.5 0l0 5.5625q0 1.703125 0.0625 1.984375q0.078125 0.28125 0.328125 0.46875q0.265625 0.171875 0.625 0.171875q0.515625 0 1.46875 -0.359375l0.3125 2.84375q-1.265625 0.546875 -2.890625 0.546875q-0.984375 0 -1.78125 -0.328125q-0.796875 -0.328125 -1.171875 -0.859375q-0.359375 -0.53125 -0.5 -1.421875q-0.125 -0.640625 -0.125 -2.578125l0 -6.03125l-1.671875 0l0 -2.921875l1.671875 0l0 -2.734375l3.671875 -2.140625l0 4.875l2.5 0zm2.5329895 -1.875l0 -3.375l3.6718826 0l0 3.375l-3.6718826 0zm0 15.703125l0 -13.828125l3.6718826 0l0 13.828125l-3.6718826 0zm6.5622177 -7.109375q0 -1.8125 0.890625 -3.515625q0.90625 -1.71875 2.546875 -2.609375q1.65625 -0.90625 3.6875 -0.90625q3.140625 0 5.140625 2.046875q2.0 2.03125 2.0 5.140625q0 3.140625 -2.03125 5.203125q-2.015625 2.0625 -5.078125 2.0625q-1.90625 0 -3.640625 -0.859375q-1.71875 -0.859375 -2.625 -2.515625q-0.890625 -1.65625 -0.890625 -4.046875zm3.75 0.203125q0 2.046875 0.96875 3.140625q0.984375 1.09375 2.421875 1.09375q1.421875 0 2.390625 -1.09375q0.984375 -1.09375 0.984375 -3.171875q0 -2.03125 -0.984375 -3.125q-0.96875 -1.09375 -2.390625 -1.09375q-1.4375 0 -2.421875 1.09375q-0.96875 1.09375 -0.96875 3.15625zm25.954575 6.90625l-3.65625 0l0 -7.046875q0 -2.25 -0.234375 -2.90625q-0.234375 -0.65625 -0.765625 -1.015625q-0.515625 -0.375 -1.265625 -0.375q-0.953125 0 -1.703125 0.53125q-0.75 0.515625 -1.03125 1.375q-0.28125 0.859375 -0.28125 3.171875l0 6.265625l-3.65625 0l0 -13.828125l3.390625 0l0 2.03125q1.8125 -2.34375 4.5625 -2.34375q1.203125 0 2.203125 0.4375q1.015625 0.4375 1.515625 1.125q0.515625 0.671875 0.71875 1.53125q0.203125 0.859375 0.203125 2.453125l0 8.59375z" fill-rule="nonzero"/><path fill="#000000" d="m36.73708 277.67624l-0.328125 1.59375l-1.609375 0l0.296875 -1.40625q0.25 -1.25 0.8125 -1.828125q0.5625 -0.59375 1.3125 -0.6875l-0.125 0.625q-0.90625 0.25 -1.234375 1.703125l0.875 0zm-2.484375 0l-0.34375 1.59375l-1.609375 0l0.296875 -1.40625q0.265625 -1.25 0.8125 -1.828125q0.5625 -0.59375 1.328125 -0.6875l-0.125 0.625q-0.921875 0.25 -1.234375 1.703125l0.875 0zm4.390625 9.328125l-0.703125 -11.453125l1.5625 0l0.265625 5.65625q0.015625 0.40625 0.078125 2.203125q0.015625 0.5 0.015625 0.703125q0 0.140625 -0.015625 0.78125q0.953125 -1.953125 1.375 -2.75l3.484375 -6.59375l1.578125 0l0.390625 6.6875q0.0625 1.15625 0.078125 2.765625q0.140625 -0.390625 0.5 -1.1875q0.578125 -1.265625 0.84375 -1.8125l3.265625 -6.453125l1.5625 0l-5.828125 11.453125l-1.640625 0l-0.375 -6.9375q-0.0625 -0.890625 -0.09375 -2.1875q-0.46875 1.078125 -0.796875 1.6875l-3.96875 7.4375l-1.578125 0zm12.9296875 0l1.734375 -8.296875l1.25 0l-0.34375 1.6875q0.640625 -0.953125 1.25 -1.40625q0.609375 -0.46875 1.25 -0.46875q0.421875 0 1.046875 0.296875l-0.578125 1.3125q-0.375 -0.265625 -0.8125 -0.265625q-0.734375 0 -1.515625 0.828125q-0.78125 0.828125 -1.234375 2.984375l-0.703125 3.328125l-1.34375 0zm7.34375 -9.859375l0.328125 -1.59375l1.40625 0l-0.328125 1.59375l-1.40625 0zm-2.0625 9.859375l1.734375 -8.296875l1.40625 0l-1.734375 8.296875l-1.40625 0zm6.9140625 -1.15625l-0.234375 1.171875q-0.515625 0.125 -0.984375 0.125q-0.84375 0 -1.34375 -0.421875q-0.375 -0.3125 -0.375 -0.84375q0 -0.28125 0.203125 -1.265625l1.0 -4.8125l-1.109375 0l0.21875 -1.09375l1.125 0l0.421875 -2.046875l1.6249962 -0.96875l-0.6406212 3.015625l1.3906212 0l-0.234375 1.09375l-1.3749962 0l-0.96875 4.578125q-0.171875 0.875 -0.171875 1.046875q0 0.25 0.140625 0.390625q0.140625 0.125 0.46875 0.125q0.46875 0 0.84375 -0.09375zm7.2265587 -1.671875l1.375 0.140625q-0.296875 1.03125 -1.359375 1.953125q-1.0625 0.921875 -2.546875 0.921875q-0.921875 0 -1.6875 -0.421875q-0.765625 -0.4375 -1.171875 -1.25q-0.40625 -0.8125 -0.40625 -1.84375q0 -1.359375 0.625 -2.640625q0.640625 -1.28125 1.640625 -1.890625q1.0 -0.625 2.15625 -0.625q1.484375 0 2.375 0.921875q0.890625 0.921875 0.890625 2.515625q0 0.609375 -0.109375 1.25l-6.109375 0q-0.03125 0.234375 -0.03125 0.4375q0 1.15625 0.53125 1.78125q0.53125 0.609375 1.3125 0.609375q0.71875 0 1.421875 -0.46875q0.703125 -0.484375 1.09375 -1.390625zm-4.109375 -2.046875l4.65625 0q0.015625 -0.21875 0.015625 -0.3125q0 -1.0625 -0.53125 -1.625q-0.53125 -0.578125 -1.375 -0.578125q-0.90625 0 -1.65625 0.625q-0.734375 0.625 -1.109375 1.890625zm11.359375 4.875l1.734375 -8.296875l1.40625 0l-0.28125 1.359375q0.78125 -0.875 1.40625 -1.203125q0.625 -0.34375 1.34375 -0.34375q0.78125 0 1.296875 0.40625q0.515625 0.40625 0.6875 1.140625q0.625 -0.78125 1.328125 -1.15625q0.703125 -0.390625 1.46875 -0.390625q1.046875 0 1.5625 0.5q0.515625 0.484375 0.515625 1.375q0 0.375 -0.171875 1.265625l-1.125 5.34375l-1.40625 0l1.140625 -5.484375q0.140625 -0.671875 0.140625 -0.96875q0 -0.40625 -0.265625 -0.640625q-0.25 -0.234375 -0.71875 -0.234375q-0.625 0 -1.28125 0.390625q-0.65625 0.375 -1.03125 1.0q-0.359375 0.625 -0.625 1.90625l-0.84375 4.03125l-1.421875 0l1.171875 -5.609375q0.125 -0.5625 0.125 -0.8125q0 -0.40625 -0.25 -0.65625q-0.25 -0.25 -0.65625 -0.25q-0.609375 0 -1.265625 0.390625q-0.65625 0.375 -1.078125 1.0625q-0.40625 0.6875 -0.671875 1.953125l-0.828125 3.921875l-1.40625 0zm19.421875 -2.828125l1.375 0.140625q-0.296875 1.03125 -1.359375 1.953125q-1.0625 0.921875 -2.546875 0.921875q-0.921875 0 -1.6875 -0.421875q-0.765625 -0.4375 -1.171875 -1.25q-0.40625 -0.8125 -0.40625 -1.84375q0 -1.359375 0.625 -2.640625q0.640625 -1.28125 1.640625 -1.890625q1.0 -0.625 2.15625 -0.625q1.484375 0 2.375 0.921875q0.890625 0.921875 0.890625 2.515625q0 0.609375 -0.109375 1.25l-6.109375 0q-0.03125 0.234375 -0.03125 0.4375q0 1.15625 0.53125 1.78125q0.53125 0.609375 1.3125 0.609375q0.71875 0 1.421875 -0.46875q0.703125 -0.484375 1.09375 -1.390625zm-4.109375 -2.046875l4.65625 0q0.015625 -0.21875 0.015625 -0.3125q0 -1.0625 -0.53125 -1.625q-0.53125 -0.578125 -1.375 -0.578125q-0.90625 0 -1.65625 0.625q-0.734375 0.625 -1.109375 1.890625zm16.953125 3.84375q-0.734375 0.625 -1.421875 0.921875q-0.671875 0.296875 -1.4375 0.296875q-1.15625 0 -1.859375 -0.671875q-0.703125 -0.6875 -0.703125 -1.734375q0 -0.703125 0.3125 -1.234375q0.328125 -0.53125 0.84375 -0.859375q0.53125 -0.328125 1.28125 -0.46875q0.484375 -0.09375 1.8125 -0.140625q1.328125 -0.0625 1.90625 -0.28125q0.171875 -0.578125 0.171875 -0.96875q0 -0.484375 -0.359375 -0.765625q-0.5 -0.390625 -1.4375 -0.390625q-0.890625 0 -1.46875 0.390625q-0.5625 0.390625 -0.8125 1.125l-1.4375 -0.125q0.4375 -1.234375 1.390625 -1.890625q0.953125 -0.65625 2.390625 -0.65625q1.546875 0 2.4375 0.734375q0.6875 0.546875 0.6875 1.421875q0 0.65625 -0.1875 1.53125l-0.46875 2.0625q-0.21875 0.984375 -0.21875 1.609375q0 0.390625 0.171875 1.125l-1.421875 0q-0.125 -0.40625 -0.171875 -1.03125zm0.53125 -3.171875q-0.296875 0.109375 -0.640625 0.171875q-0.34375 0.0625 -1.140625 0.140625q-1.234375 0.109375 -1.75 0.28125q-0.5 0.15625 -0.765625 0.53125q-0.25 0.359375 -0.25 0.8125q0 0.59375 0.40625 0.984375q0.421875 0.375 1.171875 0.375q0.703125 0 1.34375 -0.375q0.65625 -0.375 1.03125 -1.03125q0.375 -0.671875 0.59375 -1.890625zm6.515625 7.390625l2.40625 -11.484375l1.3125 0l-0.25 1.15625q0.734375 -0.765625 1.296875 -1.046875q0.578125 -0.296875 1.21875 -0.296875q1.1875 0 1.96875 0.859375q0.78125 0.859375 0.78125 2.46875q0 1.296875 -0.4375 2.375q-0.421875 1.0625 -1.046875 1.71875q-0.625 0.640625 -1.265625 0.953125q-0.640625 0.296875 -1.3125 0.296875q-1.484375 0 -2.3125 -1.515625l-0.9375 4.515625l-1.421875 0zm2.8125 -6.578125q0 0.921875 0.125 1.28125q0.203125 0.515625 0.640625 0.828125q0.453125 0.3125 1.03125 0.3125q1.21875 0 1.96875 -1.375q0.75 -1.375 0.75 -2.796875q0 -1.0625 -0.5 -1.625q-0.5 -0.578125 -1.25 -0.578125q-0.546875 0 -1.015625 0.28125q-0.453125 0.28125 -0.84375 0.859375q-0.390625 0.5625 -0.65625 1.390625q-0.25 0.8125 -0.25 1.421875zm7.0390625 0.234375q0 -2.421875 1.4375 -4.015625q1.171875 -1.3125 3.09375 -1.3125q1.5 0 2.40625 0.9375q0.921875 0.9375 0.921875 2.53125q0 1.421875 -0.578125 2.65625q-0.578125 1.234375 -1.640625 1.890625q-1.0625 0.65625 -2.25 0.65625q-0.96875 0 -1.765625 -0.40625q-0.78125 -0.421875 -1.203125 -1.171875q-0.421875 -0.765625 -0.421875 -1.765625zm1.421875 -0.140625q0 1.171875 0.5625 1.78125q0.5625 0.609375 1.421875 0.609375q0.453125 0 0.890625 -0.1875q0.453125 -0.1875 0.828125 -0.5625q0.390625 -0.375 0.65625 -0.84375q0.28125 -0.484375 0.4375 -1.046875q0.25 -0.765625 0.25 -1.484375q0 -1.125 -0.578125 -1.734375q-0.5625 -0.625 -1.421875 -0.625q-0.65625 0 -1.203125 0.3125q-0.546875 0.3125 -1.0 0.921875q-0.4375 0.609375 -0.640625 1.421875q-0.203125 0.8125 -0.203125 1.4375zm13.320328 0.46875l1.375 0.140625q-0.296875 1.03125 -1.359375 1.953125q-1.0625 0.921875 -2.5468903 0.921875q-0.921875 0 -1.6875 -0.421875q-0.765625 -0.4375 -1.171875 -1.25q-0.40625 -0.8125 -0.40625 -1.84375q0 -1.359375 0.625 -2.640625q0.640625 -1.28125 1.640625 -1.890625q1.0 -0.625 2.1562653 -0.625q1.484375 0 2.375 0.921875q0.890625 0.921875 0.890625 2.515625q0 0.609375 -0.109375 1.25l-6.1093903 0q-0.03125 0.234375 -0.03125 0.4375q0 1.15625 0.53125 1.78125q0.53125 0.609375 1.3125 0.609375q0.71875 0 1.4218903 -0.46875q0.703125 -0.484375 1.09375 -1.390625zm-4.1093903 -2.046875l4.6562653 0q0.015625 -0.21875 0.015625 -0.3125q0 -1.0625 -0.53125 -1.625q-0.53125 -0.578125 -1.375 -0.578125q-0.90626526 0 -1.6562653 0.625q-0.734375 0.625 -1.109375 1.890625zm6.9140778 4.875l1.734375 -8.296875l1.40625 0l-0.28125 1.359375q0.78125 -0.875 1.40625 -1.203125q0.625 -0.34375 1.34375 -0.34375q0.78125 0 1.296875 0.40625q0.515625 0.40625 0.6875 1.140625q0.625 -0.78125 1.328125 -1.15625q0.703125 -0.390625 1.46875 -0.390625q1.046875 0 1.5625 0.5q0.515625 0.484375 0.515625 1.375q0 0.375 -0.171875 1.265625l-1.125 5.34375l-1.40625 0l1.140625 -5.484375q0.140625 -0.671875 0.140625 -0.96875q0 -0.40625 -0.265625 -0.640625q-0.25 -0.234375 -0.71875 -0.234375q-0.625 0 -1.28125 0.390625q-0.65625 0.375 -1.03125 1.0q-0.359375 0.625 -0.625 1.90625l-0.84375 4.03125l-1.421875 0l1.171875 -5.609375q0.125 -0.5625 0.125 -0.8125q0 -0.40625 -0.25 -0.65625q-0.25 -0.25 -0.65625 -0.25q-0.609375 0 -1.265625 0.390625q-0.65625 0.375 -1.078125 1.0625q-0.40625 0.6875 -0.671875 1.953125l-0.828125 3.921875l-1.40625 0zm14.953125 -9.8125l0.34375 -1.59375l1.609375 0l-0.296875 1.40625q-0.265625 1.25 -0.828125 1.84375q-0.546875 0.578125 -1.3125 0.671875l0.140625 -0.625q0.921875 -0.25 1.21875 -1.703125l-0.875 0zm2.578125 0l0.34375 -1.59375l1.609375 0l-0.296875 1.40625q-0.265625 1.25 -0.828125 1.84375q-0.546875 0.578125 -1.3125 0.671875l0.125 -0.625q0.921875 -0.25 1.234375 -1.703125l-0.875 0z" fill-rule="nonzero"/><path fill="#f6b26b" d="m228.25066 224.12505l0 0c0 -10.222549 8.287018 -18.509567 18.509552 -18.509567l142.79192 0c4.909027 0 9.617004 1.950119 13.088226 5.4213257c3.471222 3.471222 5.4213257 8.179199 5.4213257 13.088242l0 74.035995c0 10.222565 -8.287018 18.509552 -18.509552 18.509552l-142.79192 0c-10.222534 0 -18.509552 -8.286987 -18.509552 -18.509552z" fill-rule="evenodd"/><path fill="#000000" d="m281.5462 254.74304l0 -19.078125l5.765625 0l3.453125 13.015625l3.421875 -13.015625l5.78125 0l0 19.078125l-3.578125 0l0 -15.015625l-3.78125 15.015625l-3.71875 0l-3.765625 -15.015625l0 15.015625l-3.578125 0zm21.37674 -7.109375q0 -1.8125 0.890625 -3.515625q0.90625 -1.71875 2.546875 -2.609375q1.65625 -0.90625 3.6875 -0.90625q3.140625 0 5.140625 2.046875q2.0 2.03125 2.0 5.140625q0 3.140625 -2.03125 5.203125q-2.015625 2.0625 -5.078125 2.0625q-1.90625 0 -3.640625 -0.859375q-1.71875 -0.859375 -2.625 -2.515625q-0.890625 -1.65625 -0.890625 -4.046875zm3.75 0.203125q0 2.046875 0.96875 3.140625q0.984375 1.09375 2.421875 1.09375q1.421875 0 2.390625 -1.09375q0.984375 -1.09375 0.984375 -3.171875q0 -2.03125 -0.984375 -3.125q-0.96875 -1.09375 -2.390625 -1.09375q-1.4375 0 -2.421875 1.09375q-0.96875 1.09375 -0.96875 3.15625zm26.063965 6.90625l-3.40625 0l0 -2.03125q-0.84375 1.1875 -2.0 1.765625q-1.140625 0.578125 -2.3125 0.578125q-2.390625 0 -4.09375 -1.921875q-1.6875 -1.921875 -1.6875 -5.359375q0 -3.515625 1.65625 -5.34375q1.65625 -1.828125 4.171875 -1.828125q2.3125 0 4.015625 1.9375l0 -6.875l3.65625 0l0 19.078125zm-9.765625 -7.203125q0 2.203125 0.609375 3.1875q0.890625 1.4375 2.46875 1.4375q1.265625 0 2.15625 -1.0625q0.890625 -1.078125 0.890625 -3.21875q0 -2.375 -0.859375 -3.421875q-0.859375 -1.0625 -2.203125 -1.0625q-1.296875 0 -2.1875 1.046875q-0.875 1.03125 -0.875 3.09375zm21.376434 2.796875l3.640625 0.625q-0.703125 2.0 -2.21875 3.046875q-1.515625 1.046875 -3.796875 1.046875q-3.609375 0 -5.328125 -2.359375q-1.375 -1.890625 -1.375 -4.765625q0 -3.4375 1.796875 -5.375q1.796875 -1.953125 4.546875 -1.953125q3.078125 0 4.859375 2.046875q1.78125 2.03125 1.703125 6.234375l-9.15625 0q0.046875 1.625 0.890625 2.53125q0.84375 0.90625 2.109375 0.90625q0.859375 0 1.4375 -0.46875q0.59375 -0.46875 0.890625 -1.515625zm0.203125 -3.6875q-0.03125 -1.59375 -0.8125 -2.421875q-0.78125 -0.828125 -1.90625 -0.828125q-1.203125 0 -1.984375 0.875q-0.78125 0.875 -0.765625 2.375l5.46875 0zm6.606201 8.09375l0 -19.078125l3.671875 0l0 19.078125l-3.671875 0z" fill-rule="nonzero"/><path fill="#000000" d="m279.59756 286.50305l2.40625 -11.453125l8.265625 0l-0.28125 1.296875l-6.734375 0l-0.75 3.5625l6.5625 0l-0.265625 1.3125l-6.5625 0l-0.828125 3.984375l7.203125 0l-0.265625 1.296875l-8.75 0zm10.875 0l0.34375 -1.609375l1.59375 0l-0.34375 1.609375l-1.59375 0zm3.9765625 0.75l1.4375 0.140625q-0.015625 0.484375 0.109375 0.71875q0.140625 0.25 0.421875 0.375q0.390625 0.171875 1.0 0.171875q1.28125 0 1.84375 -0.65625q0.359375 -0.453125 0.671875 -1.953125l0.140625 -0.671875q-1.09375 1.125 -2.34375 1.125q-1.25 0 -2.109375 -0.921875q-0.84375 -0.9375 -0.84375 -2.625q0 -1.40625 0.671875 -2.578125q0.671875 -1.171875 1.59375 -1.765625q0.921875 -0.59375 1.890625 -0.59375q1.640625 0 2.515625 1.546875l0.28125 -1.359375l1.296875 0l-1.671875 8.0q-0.265625 1.328125 -0.71875 2.0625q-0.4375 0.75 -1.234375 1.15625q-0.796875 0.40625 -1.828125 0.40625q-1.0 0 -1.734375 -0.265625q-0.71875 -0.25 -1.078125 -0.75q-0.34375 -0.5 -0.34375 -1.140625q0 -0.1875 0.03125 -0.421875zm1.765625 -4.421875q0 0.84375 0.171875 1.28125q0.234375 0.59375 0.65625 0.921875q0.4375 0.3125 0.96875 0.3125q0.703125 0 1.390625 -0.484375q0.6875 -0.5 1.109375 -1.515625q0.421875 -1.03125 0.421875 -1.953125q0 -1.03125 -0.5625 -1.625q-0.5625 -0.609375 -1.40625 -0.609375q-0.515625 0 -1.0 0.28125q-0.484375 0.265625 -0.90625 0.84375q-0.40625 0.5625 -0.625 1.359375q-0.21875 0.78125 -0.21875 1.1875zm7.6015625 3.671875l0.34375 -1.609375l1.59375 0l-0.34375 1.609375l-1.59375 0zm14.53125 -4.515625l0.265625 -1.296875l5.015625 0l-0.96875 4.65625q-0.953125 0.59375 -2.171875 0.984375q-1.203125 0.375 -2.375 0.375q-2.5 0 -3.734375 -1.515625q-1.03125 -1.28125 -1.03125 -3.28125q0 -2.0625 0.90625 -3.75q0.90625 -1.6875 2.296875 -2.5q1.390625 -0.8125 3.078125 -0.8125q1.21875 0 2.1875 0.453125q0.96875 0.4375 1.484375 1.171875q0.515625 0.734375 0.75 1.921875l-1.5 0.171875q-0.25 -1.1875 -1.015625 -1.8125q-0.75 -0.625 -1.953125 -0.625q-1.234375 0 -2.3125 0.671875q-1.078125 0.671875 -1.734375 2.046875q-0.640625 1.359375 -0.640625 3.09375q0 1.71875 0.84375 2.609375q0.859375 0.875 2.359375 0.875q1.5 0 3.21875 -0.984375l0.515625 -2.453125l-3.484375 0zm6.5703125 4.515625l2.40625 -11.453125l4.78125 0q1.234375 0 1.859375 0.28125q0.625 0.28125 1.03125 0.984375q0.40625 0.6875 0.40625 1.546875q0 0.703125 -0.296875 1.4375q-0.28125 0.734375 -0.734375 1.21875q-0.4375 0.46875 -0.890625 0.71875q-0.453125 0.234375 -0.96875 0.359375q-1.09375 0.25 -2.21875 0.25l-2.875 0l-0.96875 4.65625l-1.53125 0zm2.78125 -5.953125l2.515625 0q1.46875 0 2.15625 -0.3125q0.6875 -0.3125 1.09375 -0.953125q0.421875 -0.65625 0.421875 -1.390625q0 -0.5625 -0.21875 -0.90625q-0.21875 -0.359375 -0.625 -0.53125q-0.390625 -0.171875 -1.515625 -0.171875l-2.9375 0l-0.890625 4.265625zm10.84375 5.953125l2.109375 -10.15625l-3.75 0l0.265625 -1.296875l9.015625 0l-0.265625 1.296875l-3.734375 0l-2.109375 10.15625l-1.53125 0zm5.4140625 -3.4375l0.296875 -1.421875l4.3125 0l-0.296875 1.421875l-4.3125 0zm9.359375 3.4375l0.625 -2.921875l-4.671875 0l0.296875 -1.40625l6.40625 -7.125l1.15625 0l-1.515625 7.28125l1.609375 0l-0.265625 1.25l-1.609375 0l-0.609375 2.921875l-1.421875 0zm0.875 -4.171875l1.0 -4.78125l-4.265625 4.78125l3.265625 0z" fill-rule="nonzero"/><path fill="#d9d9d9" d="m449.56168 224.12636l0 0c0 -10.222549 8.287018 -18.509567 18.509552 -18.509567l142.79193 0c4.9090576 0 9.617004 1.950119 13.088196 5.4213257c3.4712524 3.471222 5.4213257 8.179199 5.4213257 13.088242l0 74.035995c0 10.222565 -8.286987 18.509552 -18.509521 18.509552l-142.79193 0c-10.222534 0 -18.509552 -8.286987 -18.509552 -18.509552z" fill-rule="evenodd"/><path fill="#000000" d="m477.72125 256.74435l0 -19.078125l8.109375 0q3.0625 0 4.4375 0.515625q1.390625 0.515625 2.21875 1.828125q0.84375 1.3125 0.84375 3.0q0 2.15625 -1.265625 3.5625q-1.265625 1.390625 -3.78125 1.75q1.25 0.734375 2.0625 1.609375q0.8125 0.859375 2.203125 3.09375l2.328125 3.71875l-4.609375 0l-2.78125 -4.15625q-1.484375 -2.21875 -2.03125 -2.796875q-0.546875 -0.578125 -1.171875 -0.796875q-0.609375 -0.21875 -1.921875 -0.21875l-0.78125 0l0 7.96875l-3.859375 0zm3.859375 -11.015625l2.84375 0q2.765625 0 3.453125 -0.234375q0.703125 -0.234375 1.09375 -0.796875q0.390625 -0.578125 0.390625 -1.4375q0 -0.96875 -0.515625 -1.546875q-0.515625 -0.59375 -1.453125 -0.75q-0.46875 -0.078125 -2.8125 -0.078125l-3.0 0l0 4.84375zm23.35965 6.609375l3.640625 0.625q-0.703125 2.0 -2.21875 3.046875q-1.515625 1.046875 -3.796875 1.046875q-3.609375 0 -5.328125 -2.359375q-1.375 -1.890625 -1.375 -4.765625q0 -3.4375 1.796875 -5.375q1.796875 -1.953125 4.546875 -1.953125q3.078125 0 4.859375 2.046875q1.78125 2.03125 1.703125 6.234375l-9.15625 0q0.046875 1.625 0.890625 2.53125q0.84375 0.90625 2.109375 0.90625q0.859375 0 1.4375 -0.46875q0.59375 -0.46875 0.890625 -1.515625zm0.203125 -3.6875q-0.03125 -1.59375 -0.8125 -2.421875q-0.78125 -0.828125 -1.90625 -0.828125q-1.203125 0 -1.984375 0.875q-0.78125 0.875 -0.765625 2.375l5.46875 0zm5.324951 4.15625l3.6718445 -0.5625q0.234375 1.0625 0.953125 1.625q0.71875 0.546875 2.0 0.546875q1.421875 0 2.140625 -0.515625q0.46875 -0.375 0.46875 -0.984375q0 -0.421875 -0.25 -0.6875q-0.28125 -0.265625 -1.234375 -0.484375q-4.421875 -0.96875 -5.609375 -1.78125q-1.6405945 -1.125 -1.6405945 -3.109375q0 -1.796875 1.4218445 -3.015625q1.421875 -1.234375 4.40625 -1.234375q2.828125 0 4.203125 0.9375q1.390625 0.921875 1.90625 2.71875l-3.4375 0.640625q-0.234375 -0.796875 -0.859375 -1.21875q-0.609375 -0.4375 -1.75 -0.4375q-1.4375 0 -2.0625 0.390625q-0.421875 0.296875 -0.421875 0.75q0 0.390625 0.359375 0.65625q0.5 0.375 3.421875 1.046875q2.921875 0.65625 4.078125 1.609375q1.140625 0.984375 1.140625 2.71875q0 1.90625 -1.59375 3.28125q-1.578125 1.359375 -4.6875 1.359375q-2.828125 0 -4.484375 -1.140625q-1.6405945 -1.15625 -2.1405945 -3.109375zm16.01242 -9.890625l3.40625 0l0 2.03125q0.671875 -1.03125 1.796875 -1.6875q1.125 -0.65625 2.515625 -0.65625q2.40625 0 4.078125 1.890625q1.6875 1.890625 1.6875 5.265625q0 3.453125 -1.703125 5.375q-1.6875 1.921875 -4.09375 1.921875q-1.140625 0 -2.078125 -0.453125q-0.921875 -0.453125 -1.953125 -1.5625l0 6.96875l-3.65625 0l0 -19.09375zm3.609375 6.6875q0 2.328125 0.921875 3.4375q0.9375 1.109375 2.265625 1.109375q1.265625 0 2.109375 -1.015625q0.859375 -1.03125 0.859375 -3.359375q0 -2.171875 -0.875 -3.21875q-0.875 -1.0625 -2.171875 -1.0625q-1.328125 0 -2.21875 1.046875q-0.890625 1.03125 -0.890625 3.0625zm11.92334 0.03125q0 -1.8125 0.890625 -3.515625q0.90625 -1.71875 2.546875 -2.609375q1.65625 -0.90625 3.6875 -0.90625q3.140625 0 5.140625 2.046875q2.0 2.03125 2.0 5.140625q0 3.140625 -2.03125 5.203125q-2.015625 2.0625 -5.078125 2.0625q-1.90625 0 -3.640625 -0.859375q-1.71875 -0.859375 -2.625 -2.515625q-0.890625 -1.65625 -0.890625 -4.046875zm3.75 0.203125q0 2.046875 0.96875 3.140625q0.984375 1.09375 2.421875 1.09375q1.421875 0 2.390625 -1.09375q0.984375 -1.09375 0.984375 -3.171875q0 -2.03125 -0.984375 -3.125q-0.96875 -1.09375 -2.390625 -1.09375q-1.4375 0 -2.421875 1.09375q-0.96875 1.09375 -0.96875 3.15625zm25.95459 6.90625l-3.65625 0l0 -7.046875q0 -2.25 -0.234375 -2.90625q-0.234375 -0.65625 -0.765625 -1.015625q-0.515625 -0.375 -1.265625 -0.375q-0.953125 0 -1.703125 0.53125q-0.75 0.515625 -1.03125 1.375q-0.28125 0.859375 -0.28125 3.171875l0 6.265625l-3.65625 0l0 -13.828125l3.390625 0l0 2.03125q1.8125 -2.34375 4.5625 -2.34375q1.203125 0 2.203125 0.4375q1.015625 0.4375 1.515625 1.125q0.515625 0.671875 0.71875 1.53125q0.203125 0.859375 0.203125 2.453125l0 8.59375zm2.4232788 -3.9375l3.671875 -0.5625q0.234375 1.0625 0.953125 1.625q0.71875 0.546875 2.0 0.546875q1.421875 0 2.140625 -0.515625q0.46881104 -0.375 0.46881104 -0.984375q0 -0.421875 -0.25 -0.6875q-0.28131104 -0.265625 -1.234436 -0.484375q-4.421875 -0.96875 -5.609375 -1.78125q-1.640625 -1.125 -1.640625 -3.109375q0 -1.796875 1.421875 -3.015625q1.421875 -1.234375 4.40625 -1.234375q2.828186 0 4.203186 0.9375q1.390625 0.921875 1.90625 2.71875l-3.4375 0.640625q-0.23443604 -0.796875 -0.85943604 -1.21875q-0.609375 -0.4375 -1.75 -0.4375q-1.4375 0 -2.0625 0.390625q-0.421875 0.296875 -0.421875 0.75q0 0.390625 0.359375 0.65625q0.5 0.375 3.421875 1.046875q2.921936 0.65625 4.078186 1.609375q1.140625 0.984375 1.140625 2.71875q0 1.90625 -1.59375 3.28125q-1.578125 1.359375 -4.687561 1.359375q-2.828125 0 -4.484375 -1.140625q-1.640625 -1.15625 -2.140625 -3.109375zm24.121826 -0.46875l3.640625 0.625q-0.703125 2.0 -2.21875 3.046875q-1.515625 1.046875 -3.796875 1.046875q-3.609375 0 -5.328125 -2.359375q-1.375 -1.890625 -1.375 -4.765625q0 -3.4375 1.796875 -5.375q1.796875 -1.953125 4.546875 -1.953125q3.078125 0 4.859375 2.046875q1.78125 2.03125 1.703125 6.234375l-9.15625 0q0.046875 1.625 0.890625 2.53125q0.84375 0.90625 2.109375 0.90625q0.859375 0 1.4375 -0.46875q0.59375 -0.46875 0.890625 -1.515625zm0.203125 -3.6875q-0.03125 -1.59375 -0.8125 -2.421875q-0.78125 -0.828125 -1.90625 -0.828125q-1.203125 0 -1.984375 0.875q-0.78125 0.875 -0.765625 2.375l5.46875 0z" fill-rule="nonzero"/><path fill="#000000" d="m474.44318 278.6775l-0.3125 1.46875l-1.46875 0l0.265625 -1.28125q0.25 -1.15625 0.75 -1.6875q0.515625 -0.546875 1.203125 -0.625l-0.109375 0.5625q-0.828125 0.234375 -1.125 1.5625l0.796875 0zm-2.28125 0l-0.3125 1.46875l-1.46875 0l0.265625 -1.28125q0.234375 -1.15625 0.75 -1.6875q0.515625 -0.546875 1.203125 -0.625l-0.109375 0.5625q-0.84375 0.234375 -1.125 1.5625l0.796875 0zm2.3962708 8.546875l2.1875 -10.484375l1.40625 0l-2.203125 10.484375l-1.390625 0zm3.7125854 0l1.59375 -7.59375l1.171875 0l-0.28125 1.3125q0.765625 -0.78125 1.421875 -1.125q0.671875 -0.359375 1.375 -0.359375q0.921875 0 1.4375 0.5q0.53125 0.5 0.53125 1.328125q0 0.421875 -0.1875 1.34375l-0.96875 4.59375l-1.296875 0l1.015625 -4.8125q0.15625 -0.703125 0.15625 -1.046875q0 -0.375 -0.265625 -0.609375q-0.265625 -0.234375 -0.75 -0.234375q-1.0 0 -1.78125 0.71875q-0.765625 0.703125 -1.140625 2.453125l-0.734375 3.53125l-1.296875 0zm15.2543335 -1.046875l-0.21875 1.046875q-0.46875 0.125 -0.90625 0.125q-0.765625 0 -1.21875 -0.375q-0.34375 -0.28125 -0.34375 -0.78125q0 -0.25 0.1875 -1.15625l0.921875 -4.40625l-1.03125 0l0.203125 -1.0l1.03125 0l0.390625 -1.875l1.484375 -0.890625l-0.578125 2.765625l1.265625 0l-0.203125 1.0l-1.265625 0l-0.890625 4.203125q-0.15625 0.796875 -0.15625 0.953125q0 0.234375 0.125 0.359375q0.140625 0.109375 0.4375 0.109375q0.421875 0 0.765625 -0.078125zm2.493866 1.046875l-0.796875 -7.59375l1.25 0l0.34375 3.40625l0.125 1.921875q0.015625 0.21875 0.046875 0.859375q0.21875 -0.71875 0.359375 -1.109375q0.15625 -0.390625 0.484375 -1.125l1.8125 -3.953125l1.40625 0l0.25 3.796875q0.0625 0.859375 0.078125 2.3125q0.359375 -0.96875 1.15625 -2.671875l1.640625 -3.4375l1.296875 0l-3.71875 7.59375l-1.34375 0l-0.28125 -4.453125q-0.03125 -0.421875 -0.046875 -1.625q-0.296875 0.765625 -0.703125 1.65625l-2.0 4.421875l-1.359375 0zm10.974884 -9.03125l0.3125 -1.453125l1.28125 0l-0.3125 1.453125l-1.28125 0zm-1.890625 9.03125l1.59375 -7.59375l1.296875 0l-1.59375 7.59375l-1.296875 0zm3.2092896 0l2.1875 -10.484375l1.296875 0l-2.1875 10.484375l-1.296875 0zm5.193634 -9.03125l0.3125 -1.453125l1.28125 0l-0.3125 1.453125l-1.28125 0zm-1.890625 9.03125l1.59375 -7.59375l1.296875 0l-1.59375 7.59375l-1.296875 0zm3.2405396 0.6875l1.296875 0.125q-0.015625 0.4375 0.109375 0.65625q0.125 0.234375 0.390625 0.34375q0.34375 0.15625 0.90625 0.15625q1.171875 0 1.6875 -0.609375q0.34375 -0.40625 0.625 -1.765625l0.125 -0.609375q-1.0 1.015625 -2.140625 1.015625q-1.15625 0 -1.9375 -0.84375q-0.765625 -0.859375 -0.765625 -2.40625q0 -1.28125 0.609375 -2.34375q0.609375 -1.078125 1.453125 -1.625q0.84375 -0.546875 1.734375 -0.546875q1.5 0 2.3125 1.40625l0.25 -1.234375l1.1875 0l-1.53125 7.328125q-0.25 1.203125 -0.65625 1.875q-0.40625 0.6875 -1.140625 1.0625q-0.71875 0.375 -1.671875 0.375q-0.90625 0 -1.578125 -0.25q-0.65625 -0.234375 -0.984375 -0.6875q-0.328125 -0.453125 -0.328125 -1.03125q0 -0.1875 0.046875 -0.390625zm1.609375 -4.046875q0 0.78125 0.15625 1.171875q0.203125 0.546875 0.59375 0.84375q0.40625 0.28125 0.890625 0.28125q0.640625 0 1.265625 -0.4375q0.640625 -0.453125 1.03125 -1.390625q0.390625 -0.9375 0.390625 -1.796875q0 -0.9375 -0.53125 -1.484375q-0.515625 -0.5625 -1.28125 -0.5625q-0.46875 0 -0.921875 0.265625q-0.4375 0.25 -0.828125 0.765625q-0.375 0.515625 -0.578125 1.25q-0.1875 0.71875 -0.1875 1.09375zm6.604248 3.359375l2.1875 -10.484375l1.296875 0l-0.828125 4.015625q0.71875 -0.6875 1.34375 -0.984375q0.625 -0.3125 1.28125 -0.3125q0.9375 0 1.453125 0.5q0.53125 0.484375 0.53125 1.296875q0 0.40625 -0.234375 1.484375l-0.9375 4.484375l-1.296875 0l0.96875 -4.59375q0.21875 -1.015625 0.21875 -1.265625q0 -0.375 -0.265625 -0.609375q-0.25 -0.234375 -0.75 -0.234375q-0.6875 0 -1.328125 0.375q-0.640625 0.359375 -1.0 1.0q-0.359375 0.640625 -0.65625 2.0625l-0.6875 3.265625l-1.296875 0zm11.182312 -1.046875l-0.21875 1.046875q-0.46875 0.125 -0.90625 0.125q-0.765625 0 -1.21875 -0.375q-0.34375 -0.28125 -0.34375 -0.78125q0 -0.25 0.1875 -1.15625l0.921875 -4.40625l-1.03125 0l0.203125 -1.0l1.03125 0l0.390625 -1.875l1.484375 -0.890625l-0.578125 2.765625l1.265625 0l-0.203125 1.0l-1.265625 0l-0.890625 4.203125q-0.15625 0.796875 -0.15625 0.953125q0 0.234375 0.125 0.359375q0.140625 0.109375 0.4375 0.109375q0.421875 0 0.765625 -0.078125zm2.4157715 -5.734375l0.09375 -1.953125l0.359375 -1.75l1.484375 0l-0.390625 1.75l-0.75 1.953125l-0.796875 0zm1.5480957 4.1875l1.296875 -0.078125q0 0.546875 0.171875 0.953125q0.171875 0.390625 0.625 0.640625q0.46875 0.25 1.078125 0.25q0.859375 0 1.28125 -0.34375q0.4375 -0.34375 0.4375 -0.8125q0 -0.328125 -0.25 -0.640625q-0.265625 -0.296875 -1.296875 -0.734375q-1.03125 -0.4375 -1.3125 -0.625q-0.484375 -0.28125 -0.734375 -0.671875q-0.234375 -0.40625 -0.234375 -0.921875q0 -0.90625 0.71875 -1.546875q0.71875 -0.640625 2.0 -0.640625q1.4375 0 2.1875 0.65625q0.75 0.65625 0.765625 1.734375l-1.265625 0.09375q-0.03125 -0.6875 -0.484375 -1.078125q-0.453125 -0.40625 -1.296875 -0.40625q-0.671875 0 -1.046875 0.3125q-0.359375 0.296875 -0.359375 0.65625q0 0.359375 0.3125 0.625q0.21875 0.1875 1.109375 0.578125q1.484375 0.640625 1.875 1.015625q0.625 0.59375 0.625 1.453125q0 0.5625 -0.359375 1.109375q-0.34375 0.53125 -1.0625 0.859375q-0.703125 0.328125 -1.671875 0.328125q-1.3125 0 -2.234375 -0.65625q-0.921875 -0.640625 -0.875 -2.109375zm16.853271 0.015625l1.265625 0.125q-0.265625 0.9375 -1.25 1.78125q-0.96875 0.84375 -2.328125 0.84375q-0.84375 0 -1.546875 -0.390625q-0.703125 -0.390625 -1.078125 -1.125q-0.359375 -0.75 -0.359375 -1.703125q0 -1.25 0.5625 -2.421875q0.578125 -1.171875 1.5 -1.734375q0.921875 -0.5625 1.984375 -0.5625q1.359375 0 2.171875 0.84375q0.8125 0.84375 0.8125 2.296875q0 0.5625 -0.109375 1.140625l-5.59375 0q-0.03125 0.234375 -0.03125 0.40625q0 1.0625 0.484375 1.625q0.5 0.5625 1.203125 0.5625q0.671875 0 1.3125 -0.4375q0.640625 -0.4375 1.0 -1.25zm-3.765625 -1.890625l4.265625 0q0.015625 -0.203125 0.015625 -0.28125q0 -0.96875 -0.484375 -1.484375q-0.484375 -0.53125 -1.25 -0.53125q-0.84375 0 -1.53125 0.578125q-0.671875 0.5625 -1.015625 1.71875zm6.338562 4.46875l1.578125 -7.59375l1.296875 0l-0.265625 1.25q0.734375 -0.8125 1.296875 -1.109375q0.5625 -0.3125 1.234375 -0.3125q0.703125 0 1.171875 0.375q0.484375 0.375 0.640625 1.046875q0.578125 -0.71875 1.21875 -1.0625q0.640625 -0.359375 1.34375 -0.359375q0.953125 0 1.421875 0.453125q0.484375 0.4375 0.484375 1.265625q0 0.34375 -0.15625 1.15625l-1.03125 4.890625l-1.296875 0l1.046875 -5.03125q0.140625 -0.609375 0.140625 -0.875q0 -0.375 -0.234375 -0.578125q-0.234375 -0.21875 -0.671875 -0.21875q-0.578125 0 -1.1875 0.359375q-0.59375 0.34375 -0.9375 0.921875q-0.328125 0.5625 -0.578125 1.734375l-0.765625 3.6875l-1.296875 0l1.078125 -5.125q0.109375 -0.53125 0.109375 -0.75q0 -0.375 -0.234375 -0.59375q-0.234375 -0.234375 -0.609375 -0.234375q-0.546875 0 -1.15625 0.359375q-0.59375 0.34375 -0.984375 0.96875q-0.375 0.625 -0.609375 1.78125l-0.75 3.59375l-1.296875 0zm12.208801 0l2.1875 -10.484375l1.296875 0l-0.78125 3.75q0.625 -0.578125 1.125 -0.796875q0.5 -0.234375 1.046875 -0.234375q1.0625 0 1.765625 0.796875q0.71875 0.78125 0.71875 2.296875q0 1.015625 -0.296875 1.859375q-0.28125 0.828125 -0.703125 1.40625q-0.421875 0.5625 -0.875 0.90625q-0.4375 0.328125 -0.921875 0.5q-0.46875 0.171875 -0.90625 0.171875q-0.75 0 -1.328125 -0.390625q-0.5625 -0.40625 -0.890625 -1.21875l-0.296875 1.4375l-1.140625 0zm1.921875 -3.125l-0.015625 0.25q0 0.96875 0.46875 1.484375q0.46875 0.5 1.15625 0.5q0.6875 0 1.25 -0.46875q0.578125 -0.484375 0.9375 -1.484375q0.359375 -1.015625 0.359375 -1.859375q0 -0.96875 -0.46875 -1.5q-0.453125 -0.53125 -1.125 -0.53125q-0.703125 0 -1.296875 0.546875q-0.578125 0.546875 -0.96875 1.671875q-0.296875 0.828125 -0.296875 1.390625zm6.229248 3.125l1.59375 -7.59375l1.140625 0l-0.328125 1.546875q0.59375 -0.875 1.15625 -1.296875q0.5625 -0.421875 1.15625 -0.421875q0.375 0 0.9375 0.265625l-0.515625 1.203125q-0.34375 -0.234375 -0.75 -0.234375q-0.671875 0 -1.390625 0.765625q-0.71875 0.75 -1.125 2.71875l-0.640625 3.046875l-1.234375 0zm10.005615 -0.9375q-0.671875 0.578125 -1.296875 0.84375q-0.625 0.265625 -1.328125 0.265625q-1.046875 0 -1.703125 -0.609375q-0.640625 -0.625 -0.640625 -1.59375q0 -0.640625 0.28125 -1.125q0.296875 -0.5 0.78125 -0.796875q0.484375 -0.296875 1.171875 -0.421875q0.4375 -0.078125 1.65625 -0.125q1.21875 -0.0625 1.75 -0.265625q0.15625 -0.53125 0.15625 -0.875q0 -0.453125 -0.328125 -0.71875q-0.453125 -0.359375 -1.328125 -0.359375q-0.8125 0 -1.328125 0.375q-0.515625 0.359375 -0.75 1.015625l-1.3125 -0.109375q0.40625 -1.125 1.265625 -1.71875q0.875 -0.609375 2.203125 -0.609375q1.40625 0 2.21875 0.671875q0.640625 0.5 0.640625 1.296875q0 0.609375 -0.1875 1.40625l-0.421875 1.890625q-0.203125 0.90625 -0.203125 1.46875q0 0.359375 0.171875 1.03125l-1.3125 0q-0.109375 -0.375 -0.15625 -0.9375zm0.484375 -2.90625q-0.28125 0.09375 -0.59375 0.15625q-0.296875 0.0625 -1.03125 0.125q-1.140625 0.09375 -1.609375 0.25q-0.453125 0.15625 -0.6875 0.5q-0.234375 0.328125 -0.234375 0.734375q0 0.546875 0.375 0.90625q0.375 0.34375 1.0625 0.34375q0.640625 0 1.234375 -0.34375q0.59375 -0.34375 0.9375 -0.953125q0.34375 -0.609375 0.546875 -1.71875zm7.791748 1.078125l1.296875 0.125q-0.484375 1.4375 -1.390625 2.125q-0.890625 0.6875 -2.046875 0.6875q-1.234375 0 -2.0 -0.796875q-0.765625 -0.8125 -0.765625 -2.25q0 -1.234375 0.484375 -2.4375q0.5 -1.203125 1.421875 -1.828125q0.921875 -0.625 2.09375 -0.625q1.21875 0 1.9375 0.6875q0.71875 0.6875 0.71875 1.828125l-1.265625 0.078125q-0.015625 -0.71875 -0.4375 -1.125q-0.40625 -0.40625 -1.078125 -0.40625q-0.78125 0 -1.359375 0.5q-0.5625 0.484375 -0.890625 1.5q-0.328125 1.0 -0.328125 1.921875q0 0.984375 0.421875 1.46875q0.4375 0.484375 1.078125 0.484375q0.625 0 1.203125 -0.484375q0.578125 -0.484375 0.90625 -1.453125zm7.65625 0.1875l1.265625 0.125q-0.265625 0.9375 -1.25 1.78125q-0.96875 0.84375 -2.328125 0.84375q-0.84375 0 -1.546875 -0.390625q-0.703125 -0.390625 -1.078125 -1.125q-0.359375 -0.75 -0.359375 -1.703125q0 -1.25 0.5625 -2.421875q0.578125 -1.171875 1.5 -1.734375q0.921875 -0.5625 1.984375 -0.5625q1.359375 0 2.171875 0.84375q0.8125 0.84375 0.8125 2.296875q0 0.5625 -0.109375 1.140625l-5.59375 0q-0.03125 0.234375 -0.03125 0.40625q0 1.0625 0.484375 1.625q0.5 0.5625 1.203125 0.5625q0.671875 0 1.3125 -0.4375q0.640625 -0.4375 1.0 -1.25zm-3.765625 -1.890625l4.265625 0q0.015625 -0.203125 0.015625 -0.28125q0 -0.96875 -0.484375 -1.484375q-0.484375 -0.53125 -1.25 -0.53125q-0.84375 0 -1.53125 0.578125q-0.671875 0.5625 -1.015625 1.71875zm6.651123 4.46875l0.3125 -1.46875l1.46875 0l-0.265625 1.28125q-0.25 1.15625 -0.765625 1.6875q-0.5 0.546875 -1.203125 0.625l0.125 -0.578125q0.859375 -0.234375 1.125 -1.546875l-0.796875 0z" fill-rule="nonzero"/><path fill="#000000" d="m470.0737 306.1775l-0.21875 1.046875q-0.46875 0.125 -0.90625 0.125q-0.765625 0 -1.21875 -0.375q-0.34375 -0.28125 -0.34375 -0.78125q0 -0.25 0.1875 -1.15625l0.921875 -4.40625l-1.03125 0l0.203125 -1.0l1.03125 0l0.390625 -1.875l1.484375 -0.890625l-0.578125 2.765625l1.265625 0l-0.203125 1.0l-1.265625 0l-0.890625 4.203125q-0.15625 0.796875 -0.15625 0.953125q0 0.234375 0.125 0.359375q0.140625 0.109375 0.4375 0.109375q0.421875 0 0.765625 -0.078125zm1.0407104 1.046875l2.1875 -10.484375l1.296875 0l-0.828125 4.015625q0.71875 -0.6875 1.34375 -0.984375q0.625 -0.3125 1.28125 -0.3125q0.9375 0 1.453125 0.5q0.53125 0.484375 0.53125 1.296875q0 0.40625 -0.234375 1.484375l-0.9375 4.484375l-1.296875 0l0.96875 -4.59375q0.21875 -1.015625 0.21875 -1.265625q0 -0.375 -0.265625 -0.609375q-0.25 -0.234375 -0.75 -0.234375q-0.6875 0 -1.328125 0.375q-0.640625 0.359375 -1.0 1.0q-0.359375 0.640625 -0.65625 2.0625l-0.6875 3.265625l-1.296875 0zm13.729248 -2.578125l1.265625 0.125q-0.265625 0.9375 -1.25 1.78125q-0.96875 0.84375 -2.328125 0.84375q-0.84375 0 -1.546875 -0.390625q-0.703125 -0.390625 -1.078125 -1.125q-0.359375 -0.75 -0.359375 -1.703125q0 -1.25 0.5625 -2.421875q0.578125 -1.171875 1.5 -1.734375q0.921875 -0.5625 1.984375 -0.5625q1.359375 0 2.171875 0.84375q0.8125 0.84375 0.8125 2.296875q0 0.5625 -0.109375 1.140625l-5.59375 0q-0.03125 0.234375 -0.03125 0.40625q0 1.0625 0.484375 1.625q0.5 0.5625 1.203125 0.5625q0.671875 0 1.3125 -0.4375q0.640625 -0.4375 1.0 -1.25zm-3.765625 -1.890625l4.265625 0q0.015625 -0.203125 0.015625 -0.28125q0 -0.96875 -0.484375 -1.484375q-0.484375 -0.53125 -1.25 -0.53125q-0.84375 0 -1.53125 0.578125q-0.671875 0.5625 -1.015625 1.71875zm15.5355835 3.359375q-1.109375 1.28125 -2.3125 1.28125q-1.078125 0 -1.8125 -0.796875q-0.71875 -0.796875 -0.71875 -2.3125q0 -1.390625 0.5625 -2.53125q0.578125 -1.15625 1.4375 -1.71875q0.859375 -0.578125 1.71875 -0.578125q1.40625 0 2.140625 1.359375l0.859375 -4.078125l1.28125 0l-2.1875 10.484375l-1.203125 0l0.234375 -1.109375zm-3.546875 -2.078125q0 0.796875 0.15625 1.265625q0.15625 0.453125 0.53125 0.765625q0.390625 0.296875 0.921875 0.296875q0.875 0 1.59375 -0.921875q0.953125 -1.21875 0.953125 -3.0q0 -0.90625 -0.46875 -1.40625q-0.46875 -0.515625 -1.1875 -0.515625q-0.46875 0 -0.859375 0.203125q-0.375 0.203125 -0.75 0.703125q-0.375 0.5 -0.640625 1.265625q-0.25 0.765625 -0.25 1.34375zm11.697968 2.25q-0.671875 0.578125 -1.296875 0.84375q-0.625 0.265625 -1.328125 0.265625q-1.046875 0 -1.703125 -0.609375q-0.640625 -0.625 -0.640625 -1.59375q0 -0.640625 0.28125 -1.125q0.296875 -0.5 0.78125 -0.796875q0.484375 -0.296875 1.171875 -0.421875q0.4375 -0.078125 1.65625 -0.125q1.21875 -0.0625 1.75 -0.265625q0.15625 -0.53125 0.15625 -0.875q0 -0.453125 -0.328125 -0.71875q-0.453125 -0.359375 -1.328125 -0.359375q-0.8125 0 -1.328125 0.375q-0.515625 0.359375 -0.75 1.015625l-1.3125 -0.109375q0.40625 -1.125 1.265625 -1.71875q0.875 -0.609375 2.203125 -0.609375q1.40625 0 2.21875 0.671875q0.640625 0.5 0.640625 1.296875q0 0.609375 -0.1875 1.40625l-0.421875 1.890625q-0.203125 0.90625 -0.203125 1.46875q0 0.359375 0.171875 1.03125l-1.3125 0q-0.109375 -0.375 -0.15625 -0.9375zm0.484375 -2.90625q-0.28125 0.09375 -0.59375 0.15625q-0.296875 0.0625 -1.03125 0.125q-1.140625 0.09375 -1.609375 0.25q-0.453125 0.15625 -0.6875 0.5q-0.234375 0.328125 -0.234375 0.734375q0 0.546875 0.375 0.90625q0.375 0.34375 1.0625 0.34375q0.640625 0 1.234375 -0.34375q0.59375 -0.34375 0.9375 -0.953125q0.34375 -0.609375 0.546875 -1.71875zm2.057373 6.78125l0.078125 -1.21875q0.40625 0.109375 0.78125 0.109375q0.390625 0 0.640625 -0.171875q0.3125 -0.234375 0.6875 -0.890625l0.40625 -0.75l-1.265625 -7.609375l1.28125 0l0.5625 3.84375q0.171875 1.125 0.296875 2.265625l3.40625 -6.109375l1.34375 0l-4.84375 8.609375q-0.703125 1.25 -1.25 1.65625q-0.53125 0.40625 -1.25 0.40625q-0.453125 0 -0.875 -0.140625zm14.91571 -3.984375l-0.21875 1.046875q-0.46875 0.125 -0.90625 0.125q-0.765625 0 -1.21875 -0.375q-0.34375 -0.28125 -0.34375 -0.78125q0 -0.25 0.1875 -1.15625l0.921875 -4.40625l-1.03125 0l0.203125 -1.0l1.03125 0l0.390625 -1.875l1.484375 -0.890625l-0.578125 2.765625l1.265625 0l-0.203125 1.0l-1.265625 0l-0.890625 4.203125q-0.15625 0.796875 -0.15625 0.953125q0 0.234375 0.125 0.359375q0.140625 0.109375 0.4375 0.109375q0.421875 0 0.765625 -0.078125zm6.1657104 0.109375q-0.671875 0.578125 -1.296875 0.84375q-0.625 0.265625 -1.328125 0.265625q-1.046875 0 -1.703125 -0.609375q-0.640625 -0.625 -0.640625 -1.59375q0 -0.640625 0.28125 -1.125q0.296875 -0.5 0.78125 -0.796875q0.484375 -0.296875 1.171875 -0.421875q0.4375 -0.078125 1.65625 -0.125q1.21875 -0.0625 1.75 -0.265625q0.15625 -0.53125 0.15625 -0.875q0 -0.453125 -0.328125 -0.71875q-0.453125 -0.359375 -1.328125 -0.359375q-0.8125 0 -1.328125 0.375q-0.515625 0.359375 -0.75 1.015625l-1.3125 -0.109375q0.40625 -1.125 1.265625 -1.71875q0.875 -0.609375 2.203125 -0.609375q1.40625 0 2.21875 0.671875q0.640625 0.5 0.640625 1.296875q0 0.609375 -0.1875 1.40625l-0.421875 1.890625q-0.203125 0.90625 -0.203125 1.46875q0 0.359375 0.171875 1.03125l-1.3125 0q-0.109375 -0.375 -0.15625 -0.9375zm0.484375 -2.90625q-0.28125 0.09375 -0.59375 0.15625q-0.296875 0.0625 -1.03125 0.125q-1.140625 0.09375 -1.609375 0.25q-0.453125 0.15625 -0.6875 0.5q-0.234375 0.328125 -0.234375 0.734375q0 0.546875 0.375 0.90625q0.375 0.34375 1.0625 0.34375q0.640625 0 1.234375 -0.34375q0.59375 -0.34375 0.9375 -0.953125q0.34375 -0.609375 0.546875 -1.71875zm2.557373 3.84375l2.203125 -10.484375l1.28125 0l-1.359375 6.5l3.78125 -3.609375l1.703125 0l-3.234375 2.828125l1.953125 4.765625l-1.40625 0l-1.515625 -3.90625l-1.578125 1.359375l-0.53125 2.546875l-1.296875 0zm12.890625 -2.578125l1.265625 0.125q-0.265625 0.9375 -1.25 1.78125q-0.96875 0.84375 -2.328125 0.84375q-0.84375 0 -1.546875 -0.390625q-0.703125 -0.390625 -1.078125 -1.125q-0.359375 -0.75 -0.359375 -1.703125q0 -1.25 0.5625 -2.421875q0.578125 -1.171875 1.5 -1.734375q0.921875 -0.5625 1.984375 -0.5625q1.359375 0 2.171875 0.84375q0.8125 0.84375 0.8125 2.296875q0 0.5625 -0.109375 1.140625l-5.59375 0q-0.03125 0.234375 -0.03125 0.40625q0 1.0625 0.484375 1.625q0.5 0.5625 1.203125 0.5625q0.671875 0 1.3125 -0.4375q0.640625 -0.4375 1.0 -1.25zm-3.765625 -1.890625l4.265625 0q0.015625 -0.203125 0.015625 -0.28125q0 -0.96875 -0.484375 -1.484375q-0.484375 -0.53125 -1.25 -0.53125q-0.84375 0 -1.53125 0.578125q-0.671875 0.5625 -1.015625 1.71875zm6.463623 1.875l1.296875 -0.078125q0 0.546875 0.171875 0.953125q0.171875 0.390625 0.625 0.640625q0.46875 0.25 1.078125 0.25q0.859375 0 1.28125 -0.34375q0.4375 -0.34375 0.4375 -0.8125q0 -0.328125 -0.25 -0.640625q-0.265625 -0.296875 -1.296875 -0.734375q-1.03125 -0.4375 -1.3125 -0.625q-0.484375 -0.28125 -0.734375 -0.671875q-0.234375 -0.40625 -0.234375 -0.921875q0 -0.90625 0.71875 -1.546875q0.71875 -0.640625 2.0 -0.640625q1.4375 0 2.1875 0.65625q0.75 0.65625 0.765625 1.734375l-1.265625 0.09375q-0.03125 -0.6875 -0.484375 -1.078125q-0.453125 -0.40625 -1.296875 -0.40625q-0.671875 0 -1.046875 0.3125q-0.359375 0.296875 -0.359375 0.65625q0 0.359375 0.3125 0.625q0.21875 0.1875 1.109375 0.578125q1.484375 0.640625 1.875 1.015625q0.625 0.59375 0.625 1.453125q0 0.5625 -0.359375 1.109375q-0.34375 0.53125 -1.0625 0.859375q-0.703125 0.328125 -1.671875 0.328125q-1.3125 0 -2.234375 -0.65625q-0.921875 -0.640625 -0.875 -2.109375zm11.462585 2.59375l1.375 -6.59375l-1.15625 0l0.203125 -1.0l1.15625 0l0.21875 -1.09375q0.171875 -0.796875 0.359375 -1.15625q0.1875 -0.359375 0.59375 -0.59375q0.40625 -0.234375 1.125 -0.234375q0.484375 0 1.421875 0.203125l-0.234375 1.140625q-0.65625 -0.171875 -1.09375 -0.171875q-0.375 0 -0.578125 0.1875q-0.203125 0.1875 -0.34375 0.890625l-0.171875 0.828125l1.453125 0l-0.21875 1.0l-1.4375 0l-1.390625 6.59375l-1.28125 0zm3.7907104 0l2.1875 -10.484375l1.296875 0l-2.1875 10.484375l-1.296875 0zm5.1936646 -9.03125l0.3125 -1.453125l1.28125 0l-0.3125 1.453125l-1.28125 0zm-1.890625 9.03125l1.59375 -7.59375l1.296875 0l-1.59375 7.59375l-1.296875 0zm3.2405396 0.6875l1.296875 0.125q-0.015625 0.4375 0.109375 0.65625q0.125 0.234375 0.390625 0.34375q0.34375 0.15625 0.90625 0.15625q1.171875 0 1.6875 -0.609375q0.34375 -0.40625 0.625 -1.765625l0.125 -0.609375q-1.0 1.015625 -2.140625 1.015625q-1.15625 0 -1.9375 -0.84375q-0.765625 -0.859375 -0.765625 -2.40625q0 -1.28125 0.609375 -2.34375q0.609375 -1.078125 1.453125 -1.625q0.84375 -0.546875 1.734375 -0.546875q1.5 0 2.3125 1.40625l0.25 -1.234375l1.1875 0l-1.53125 7.328125q-0.25 1.203125 -0.65625 1.875q-0.40625 0.6875 -1.140625 1.0625q-0.71875 0.375 -1.671875 0.375q-0.90625 0 -1.578125 -0.25q-0.65625 -0.234375 -0.984375 -0.6875q-0.328125 -0.453125 -0.328125 -1.03125q0 -0.1875 0.046875 -0.390625zm1.609375 -4.046875q0 0.78125 0.15625 1.171875q0.203125 0.546875 0.59375 0.84375q0.40625 0.28125 0.890625 0.28125q0.640625 0 1.265625 -0.4375q0.640625 -0.453125 1.03125 -1.390625q0.390625 -0.9375 0.390625 -1.796875q0 -0.9375 -0.53125 -1.484375q-0.515625 -0.5625 -1.28125 -0.5625q-0.46875 0 -0.921875 0.265625q-0.4375 0.25 -0.828125 0.765625q-0.375 0.515625 -0.578125 1.25q-0.1875 0.71875 -0.1875 1.09375zm6.604248 3.359375l2.1875 -10.484375l1.296875 0l-0.828125 4.015625q0.71875 -0.6875 1.34375 -0.984375q0.625 -0.3125 1.28125 -0.3125q0.9375 0 1.453125 0.5q0.53125 0.484375 0.53125 1.296875q0 0.40625 -0.234375 1.484375l-0.9375 4.484375l-1.296875 0l0.96875 -4.59375q0.21875 -1.015625 0.21875 -1.265625q0 -0.375 -0.265625 -0.609375q-0.25 -0.234375 -0.75 -0.234375q-0.6875 0 -1.328125 0.375q-0.640625 0.359375 -1.0 1.0q-0.359375 0.640625 -0.65625 2.0625l-0.6875 3.265625l-1.296875 0zm11.182373 -1.046875l-0.21875 1.046875q-0.46875 0.125 -0.90625 0.125q-0.765625 0 -1.21875 -0.375q-0.34375 -0.28125 -0.34375 -0.78125q0 -0.25 0.1875 -1.15625l0.921875 -4.40625l-1.03125 0l0.203125 -1.0l1.03125 0l0.390625 -1.875l1.484375 -0.890625l-0.578125 2.765625l1.265625 0l-0.203125 1.0l-1.265625 0l-0.890625 4.203125q-0.15625 0.796875 -0.15625 0.953125q0 0.234375 0.125 0.359375q0.140625 0.109375 0.4375 0.109375q0.421875 0 0.765625 -0.078125zm6.737671 1.046875l0.296875 -1.46875l1.46875 0l-0.3125 1.46875l-1.453125 0zm4.890625 0l0.3125 -1.46875l1.46875 0l-0.3125 1.46875l-1.46875 0zm4.90625 0l0.296875 -1.46875l1.46875 0l-0.3125 1.46875l-1.453125 0zm4.71875 -8.984375l0.3125 -1.46875l1.46875 0l-0.25 1.296875q-0.25 1.140625 -0.765625 1.6875q-0.515625 0.53125 -1.203125 0.609375l0.125 -0.5625q0.84375 -0.234375 1.125 -1.5625l-0.8125 0zm2.375 0l0.296875 -1.46875l1.484375 0l-0.28125 1.296875q-0.234375 1.140625 -0.75 1.6875q-0.5 0.53125 -1.203125 0.609375l0.109375 -0.5625q0.859375 -0.234375 1.140625 -1.5625l-0.796875 0z" fill-rule="nonzero"/><path fill="#f6b26b" d="m670.87006 224.12505l0 0c0 -10.222549 8.287048 -18.509567 18.509583 -18.509567l142.79193 0c4.9089966 0 9.617004 1.950119 13.088196 5.4213257c3.4712524 3.471222 5.4213257 8.179199 5.4213257 13.088242l0 74.035995c0 10.222565 -8.286987 18.509552 -18.509521 18.509552l-142.79193 0c-10.222534 0 -18.509583 -8.286987 -18.509583 -18.509552z" fill-rule="evenodd"/><path fill="#000000" d="m701.9751 255.74304l0 -19.078125l14.15625 0l0 3.21875l-10.296875 0l0 4.234375l9.578125 0l0 3.21875l-9.578125 0l0 5.1875l10.65625 0l0 3.21875l-14.515625 0zm21.560791 0l-5.578125 -13.828125l3.84375 0l2.609375 7.0625l0.75 2.359375q0.296875 -0.90625 0.375 -1.1875q0.1875 -0.59375 0.390625 -1.171875l2.625 -7.0625l3.765625 0l-5.5 13.828125l-3.28125 0zm13.746765 -9.609375l-3.3125 -0.59375q0.5625 -2.0 1.921875 -2.96875q1.375 -0.96875 4.0625 -0.96875q2.453125 0 3.640625 0.578125q1.203125 0.578125 1.6875 1.484375q0.5 0.890625 0.5 3.265625l-0.046875 4.265625q0 1.828125 0.171875 2.703125q0.171875 0.859375 0.65625 1.84375l-3.609375 0q-0.140625 -0.359375 -0.359375 -1.078125q-0.09375 -0.328125 -0.125 -0.4375q-0.9375 0.921875 -2.015625 1.375q-1.0625 0.453125 -2.265625 0.453125q-2.140625 0 -3.375 -1.15625q-1.21875 -1.15625 -1.21875 -2.9375q0 -1.171875 0.546875 -2.078125q0.5625 -0.921875 1.578125 -1.40625q1.015625 -0.484375 2.90625 -0.859375q2.5625 -0.484375 3.5625 -0.890625l0 -0.375q0 -1.046875 -0.53125 -1.5q-0.515625 -0.453125 -1.96875 -0.453125q-0.96875 0 -1.515625 0.390625q-0.546875 0.390625 -0.890625 1.34375zm4.90625 2.96875q-0.703125 0.234375 -2.234375 0.5625q-1.515625 0.328125 -1.984375 0.640625q-0.71875 0.5 -0.71875 1.28125q0 0.765625 0.5625 1.328125q0.578125 0.5625 1.46875 0.5625q0.984375 0 1.890625 -0.65625q0.65625 -0.484375 0.859375 -1.203125q0.15625 -0.46875 0.15625 -1.78125l0 -0.734375zm7.184326 6.640625l0 -19.078125l3.671875 0l0 19.078125l-3.671875 0zm16.51532 0l0 -2.0625q-0.765625 1.09375 -2.0 1.734375q-1.21875 0.640625 -2.578125 0.640625q-1.40625 0 -2.515625 -0.609375q-1.09375 -0.609375 -1.59375 -1.71875q-0.5 -1.109375 -0.5 -3.0625l0 -8.75l3.671875 0l0 6.359375q0 2.90625 0.1875 3.578125q0.203125 0.65625 0.734375 1.046875q0.546875 0.375 1.359375 0.375q0.9375 0 1.671875 -0.515625q0.75 -0.515625 1.015625 -1.28125q0.28125 -0.765625 0.28125 -3.71875l0 -5.84375l3.65625 0l0 13.828125l-3.390625 0zm9.907715 -9.609375l-3.3125 -0.59375q0.5625 -2.0 1.921875 -2.96875q1.375 -0.96875 4.0625 -0.96875q2.453125 0 3.640625 0.578125q1.203125 0.578125 1.6875 1.484375q0.5 0.890625 0.5 3.265625l-0.046875 4.265625q0 1.828125 0.171875 2.703125q0.171875 0.859375 0.65625 1.84375l-3.609375 0q-0.140625 -0.359375 -0.359375 -1.078125q-0.09375 -0.328125 -0.125 -0.4375q-0.9375 0.921875 -2.015625 1.375q-1.0625 0.453125 -2.265625 0.453125q-2.140625 0 -3.375 -1.15625q-1.21875 -1.15625 -1.21875 -2.9375q0 -1.171875 0.546875 -2.078125q0.5625 -0.921875 1.578125 -1.40625q1.015625 -0.484375 2.90625 -0.859375q2.5625 -0.484375 3.5625 -0.890625l0 -0.375q0 -1.046875 -0.53125 -1.5q-0.515625 -0.453125 -1.96875 -0.453125q-0.96875 0 -1.515625 0.390625q-0.546875 0.390625 -0.890625 1.34375zm4.90625 2.96875q-0.703125 0.234375 -2.234375 0.5625q-1.515625 0.328125 -1.984375 0.640625q-0.71875 0.5 -0.71875 1.28125q0 0.765625 0.5625 1.328125q0.578125 0.5625 1.46875 0.5625q0.984375 0 1.890625 -0.65625q0.65625 -0.484375 0.859375 -1.203125q0.15625 -0.46875 0.15625 -1.78125l0 -0.734375zm13.528076 -7.1875l0 2.921875l-2.5 0l0 5.5625q0 1.703125 0.0625 1.984375q0.078125 0.28125 0.328125 0.46875q0.265625 0.171875 0.625 0.171875q0.515625 0 1.46875 -0.359375l0.3125 2.84375q-1.265625 0.546875 -2.890625 0.546875q-0.984375 0 -1.78125 -0.328125q-0.796875 -0.328125 -1.171875 -0.859375q-0.359375 -0.53125 -0.5 -1.421875q-0.125 -0.640625 -0.125 -2.578125l0 -6.03125l-1.671875 0l0 -2.921875l1.671875 0l0 -2.734375l3.671875 -2.140625l0 4.875l2.5 0zm1.689209 6.71875q0 -1.8125 0.890625 -3.515625q0.90625 -1.71875 2.546875 -2.609375q1.65625 -0.90625 3.6875 -0.90625q3.140625 0 5.140625 2.046875q2.0 2.03125 2.0 5.140625q0 3.140625 -2.03125 5.203125q-2.015625 2.0625 -5.078125 2.0625q-1.90625 0 -3.640625 -0.859375q-1.71875 -0.859375 -2.625 -2.515625q-0.890625 -1.65625 -0.890625 -4.046875zm3.75 0.203125q0 2.046875 0.96875 3.140625q0.984375 1.09375 2.421875 1.09375q1.421875 0 2.390625 -1.09375q0.984375 -1.09375 0.984375 -3.171875q0 -2.03125 -0.984375 -3.125q-0.96875 -1.09375 -2.390625 -1.09375q-1.4375 0 -2.421875 1.09375q-0.96875 1.09375 -0.96875 3.15625zm16.89209 6.90625l-3.671875 0l0 -13.828125l3.40625 0l0 1.96875q0.875 -1.390625 1.5625 -1.828125q0.703125 -0.453125 1.578125 -0.453125q1.25 0 2.421875 0.703125l-1.140625 3.1875q-0.921875 -0.609375 -1.71875 -0.609375q-0.765625 0 -1.296875 0.421875q-0.53125 0.421875 -0.84375 1.53125q-0.296875 1.109375 -0.296875 4.640625l0 4.265625z" fill-rule="nonzero"/><path fill="#000000" d="m688.79517 286.22305l2.203125 -10.484375l7.5625 0l-0.25 1.1875l-6.171875 0l-0.671875 3.265625l6.0 0l-0.25 1.1875l-6.015625 0l-0.75 3.65625l6.609375 0l-0.25 1.1875l-8.015625 0zm9.963074 0l0.3125 -1.46875l1.46875 0l-0.328125 1.46875l-1.453125 0zm3.6500854 0.6875l1.296875 0.125q-0.015625 0.4375 0.109375 0.65625q0.125 0.234375 0.390625 0.34375q0.34375 0.15625 0.90625 0.15625q1.171875 0 1.6875 -0.609375q0.34375 -0.40625 0.625 -1.765625l0.125 -0.609375q-1.0 1.015625 -2.140625 1.015625q-1.15625 0 -1.9375 -0.84375q-0.765625 -0.859375 -0.765625 -2.40625q0 -1.28125 0.609375 -2.34375q0.609375 -1.078125 1.453125 -1.625q0.84375 -0.546875 1.734375 -0.546875q1.5 0 2.3125 1.40625l0.25 -1.234375l1.1875 0l-1.53125 7.328125q-0.25 1.203125 -0.65625 1.875q-0.40625 0.6875 -1.140625 1.0625q-0.71875 0.375 -1.671875 0.375q-0.90625 0 -1.578125 -0.25q-0.65625 -0.234375 -0.984375 -0.6875q-0.328125 -0.453125 -0.328125 -1.03125q0 -0.1875 0.046875 -0.390625zm1.609375 -4.046875q0 0.78125 0.15625 1.171875q0.203125 0.546875 0.59375 0.84375q0.40625 0.28125 0.890625 0.28125q0.640625 0 1.265625 -0.4375q0.640625 -0.453125 1.03125 -1.390625q0.390625 -0.9375 0.390625 -1.796875q0 -0.9375 -0.53125 -1.484375q-0.515625 -0.5625 -1.28125 -0.5625q-0.46875 0 -0.921875 0.265625q-0.4375 0.25 -0.828125 0.765625q-0.375 0.515625 -0.578125 1.25q-0.1875 0.71875 -0.1875 1.09375zm6.963623 3.359375l0.3125 -1.46875l1.46875 0l-0.328125 1.46875l-1.453125 0zm8.331482 -3.390625l1.375 -0.125l-0.015625 0.359375q0 0.609375 0.28125 1.125q0.28125 0.5 0.921875 0.78125q0.640625 0.265625 1.53125 0.265625q1.265625 0 1.921875 -0.546875q0.65625 -0.5625 0.65625 -1.265625q0 -0.5 -0.34375 -0.90625q-0.359375 -0.390625 -1.953125 -1.078125q-1.234375 -0.546875 -1.6875 -0.828125q-0.71875 -0.46875 -1.0625 -1.015625q-0.328125 -0.546875 -0.328125 -1.25q0 -0.8125 0.4375 -1.453125q0.453125 -0.65625 1.3125 -1.0q0.859375 -0.34375 1.921875 -0.34375q1.28125 0 2.15625 0.4375q0.890625 0.421875 1.28125 1.140625q0.40625 0.71875 0.40625 1.359375q0 0.0625 -0.015625 0.21875l-1.34375 0.109375q0 -0.4375 -0.078125 -0.6875q-0.140625 -0.4375 -0.453125 -0.734375q-0.296875 -0.3125 -0.828125 -0.484375q-0.515625 -0.1875 -1.171875 -0.1875q-1.140625 0 -1.78125 0.515625q-0.484375 0.390625 -0.484375 1.046875q0 0.375 0.203125 0.6875q0.203125 0.296875 0.71875 0.59375q0.375 0.203125 1.765625 0.828125q1.125 0.5 1.5625 0.78125q0.578125 0.375 0.875 0.921875q0.3125 0.546875 0.3125 1.234375q0 0.84375 -0.515625 1.5625q-0.515625 0.71875 -1.4375 1.109375q-0.921875 0.390625 -2.09375 0.390625q-1.78125 0 -2.921875 -0.765625q-1.125 -0.78125 -1.125 -2.796875zm14.478699 0.625l1.296875 0.125q-0.484375 1.4375 -1.390625 2.125q-0.890625 0.6875 -2.046875 0.6875q-1.234375 0 -2.0 -0.796875q-0.765625 -0.8125 -0.765625 -2.25q0 -1.234375 0.484375 -2.4375q0.5 -1.203125 1.421875 -1.828125q0.921875 -0.625 2.09375 -0.625q1.21875 0 1.9375 0.6875q0.71875 0.6875 0.71875 1.828125l-1.265625 0.078125q-0.015625 -0.71875 -0.4375 -1.125q-0.40625 -0.40625 -1.078125 -0.40625q-0.78125 0 -1.359375 0.5q-0.5625 0.484375 -0.890625 1.5q-0.328125 1.0 -0.328125 1.921875q0 0.984375 0.421875 1.46875q0.4375 0.484375 1.078125 0.484375q0.625 0 1.203125 -0.484375q0.578125 -0.484375 0.90625 -1.453125zm7.203125 1.828125q-0.671875 0.578125 -1.296875 0.84375q-0.625 0.265625 -1.328125 0.265625q-1.046875 0 -1.703125 -0.609375q-0.640625 -0.625 -0.640625 -1.59375q0 -0.640625 0.28125 -1.125q0.296875 -0.5 0.78125 -0.796875q0.484375 -0.296875 1.171875 -0.421875q0.4375 -0.078125 1.65625 -0.125q1.21875 -0.0625 1.75 -0.265625q0.15625 -0.53125 0.15625 -0.875q0 -0.453125 -0.328125 -0.71875q-0.453125 -0.359375 -1.328125 -0.359375q-0.8125 0 -1.328125 0.375q-0.515625 0.359375 -0.75 1.015625l-1.3125 -0.109375q0.40625 -1.125 1.265625 -1.71875q0.875 -0.609375 2.203125 -0.609375q1.40625 0 2.21875 0.671875q0.640625 0.5 0.640625 1.296875q0 0.609375 -0.1875 1.40625l-0.421875 1.890625q-0.203125 0.90625 -0.203125 1.46875q0 0.359375 0.171875 1.03125l-1.3125 0q-0.109375 -0.375 -0.15625 -0.9375zm0.484375 -2.90625q-0.28125 0.09375 -0.59375 0.15625q-0.296875 0.0625 -1.03125 0.125q-1.140625 0.09375 -1.609375 0.25q-0.453125 0.15625 -0.6875 0.5q-0.234375 0.328125 -0.234375 0.734375q0 0.546875 0.375 0.90625q0.375 0.34375 1.0625 0.34375q0.640625 0 1.234375 -0.34375q0.59375 -0.34375 0.9375 -0.953125q0.34375 -0.609375 0.546875 -1.71875zm2.447998 3.84375l2.1875 -10.484375l1.296875 0l-2.1875 10.484375l-1.296875 0zm8.92804 -2.578125l1.265625 0.125q-0.265625 0.9375 -1.25 1.78125q-0.96875 0.84375 -2.328125 0.84375q-0.84375 0 -1.546875 -0.390625q-0.703125 -0.390625 -1.078125 -1.125q-0.359375 -0.75 -0.359375 -1.703125q0 -1.25 0.5625 -2.421875q0.578125 -1.171875 1.5 -1.734375q0.921875 -0.5625 1.984375 -0.5625q1.359375 0 2.171875 0.84375q0.8125 0.84375 0.8125 2.296875q0 0.5625 -0.109375 1.140625l-5.59375 0q-0.03125 0.234375 -0.03125 0.40625q0 1.0625 0.484375 1.625q0.5 0.5625 1.203125 0.5625q0.671875 0 1.3125 -0.4375q0.640625 -0.4375 1.0 -1.25zm-3.765625 -1.890625l4.265625 0q0.015625 -0.203125 0.015625 -0.28125q0 -0.96875 -0.484375 -1.484375q-0.484375 -0.53125 -1.25 -0.53125q-0.84375 0 -1.53125 0.578125q-0.671875 0.5625 -1.015625 1.71875zm6.651062 4.46875l0.3125 -1.46875l1.46875 0l-0.265625 1.28125q-0.25 1.15625 -0.765625 1.6875q-0.5 0.546875 -1.203125 0.625l0.125 -0.578125q0.859375 -0.234375 1.125 -1.546875l-0.796875 0zm9.2751465 -4.140625l0.25 -1.1875l4.59375 0l-0.890625 4.28125q-0.859375 0.53125 -1.96875 0.875q-1.109375 0.34375 -2.1875 0.34375q-2.296875 0 -3.421875 -1.375q-0.953125 -1.171875 -0.953125 -3.0q0 -1.890625 0.828125 -3.4375q0.84375 -1.546875 2.109375 -2.28125q1.265625 -0.75 2.828125 -0.75q1.109375 0 2.0 0.40625q0.890625 0.40625 1.359375 1.078125q0.46875 0.671875 0.6875 1.765625l-1.375 0.15625q-0.234375 -1.078125 -0.9375 -1.65625q-0.6875 -0.578125 -1.78125 -0.578125q-1.140625 0 -2.125 0.625q-0.984375 0.609375 -1.578125 1.859375q-0.59375 1.25 -0.59375 2.84375q0 1.578125 0.78125 2.390625q0.78125 0.796875 2.15625 0.796875q1.375 0 2.9375 -0.890625l0.484375 -2.265625l-3.203125 0zm6.0250854 4.140625l2.203125 -10.484375l4.375 0q1.140625 0 1.703125 0.265625q0.578125 0.25 0.9375 0.890625q0.375 0.625 0.375 1.40625q0 0.65625 -0.265625 1.328125q-0.25 0.671875 -0.65625 1.109375q-0.40625 0.4375 -0.828125 0.671875q-0.40625 0.21875 -0.890625 0.3125q-1.0 0.234375 -2.03125 0.234375l-2.625 0l-0.890625 4.265625l-1.40625 0zm2.546875 -5.453125l2.3125 0q1.34375 0 1.96875 -0.28125q0.640625 -0.296875 1.015625 -0.890625q0.375 -0.59375 0.375 -1.25q0 -0.515625 -0.203125 -0.84375q-0.203125 -0.328125 -0.5625 -0.484375q-0.359375 -0.15625 -1.40625 -0.15625l-2.6875 0l-0.8125 3.90625zm9.931824 5.453125l1.9375 -9.296875l-3.4375 0l0.25 -1.1875l8.25 0l-0.25 1.1875l-3.40625 0l-1.9375 9.296875l-1.40625 0zm4.965637 -3.15625l0.265625 -1.28125l3.953125 0l-0.265625 1.28125l-3.953125 0zm8.568176 3.15625l0.5625 -2.671875l-4.265625 0l0.265625 -1.28125l5.875 -6.53125l1.0625 0l-1.40625 6.65625l1.484375 0l-0.234375 1.15625l-1.484375 0l-0.5625 2.671875l-1.296875 0zm0.8125 -3.828125l0.90625 -4.375l-3.90625 4.375l3.0 0zm7.6918335 3.828125l2.203125 -10.484375l7.5625 0l-0.25 1.1875l-6.171875 0l-0.671875 3.265625l6.0 0l-0.25 1.1875l-6.015625 0l-0.75 3.65625l6.609375 0l-0.25 1.1875l-8.015625 0zm11.525574 0l-1.25 -7.59375l1.265625 0l0.640625 4.1875q0.109375 0.671875 0.265625 2.234375q0.375 -0.8125 0.953125 -1.859375l2.546875 -4.5625l1.359375 0l-4.34375 7.59375l-1.4375 0zm10.53125 -0.9375q-0.671875 0.578125 -1.296875 0.84375q-0.625 0.265625 -1.328125 0.265625q-1.046875 0 -1.703125 -0.609375q-0.640625 -0.625 -0.640625 -1.59375q0 -0.640625 0.28125 -1.125q0.296875 -0.5 0.78125 -0.796875q0.484375 -0.296875 1.171875 -0.421875q0.4375 -0.078125 1.65625 -0.125q1.21875 -0.0625 1.75 -0.265625q0.15625 -0.53125 0.15625 -0.875q0 -0.453125 -0.328125 -0.71875q-0.453125 -0.359375 -1.328125 -0.359375q-0.8125 0 -1.328125 0.375q-0.515625 0.359375 -0.75 1.015625l-1.3125 -0.109375q0.40625 -1.125 1.265625 -1.71875q0.875 -0.609375 2.203125 -0.609375q1.40625 0 2.21875 0.671875q0.640625 0.5 0.640625 1.296875q0 0.609375 -0.1875 1.40625l-0.421875 1.890625q-0.203125 0.90625 -0.203125 1.46875q0 0.359375 0.171875 1.03125l-1.3125 0q-0.109375 -0.375 -0.15625 -0.9375zm0.484375 -2.90625q-0.28125 0.09375 -0.59375 0.15625q-0.296875 0.0625 -1.03125 0.125q-1.140625 0.09375 -1.609375 0.25q-0.453125 0.15625 -0.6875 0.5q-0.234375 0.328125 -0.234375 0.734375q0 0.546875 0.375 0.90625q0.375 0.34375 1.0625 0.34375q0.640625 0 1.234375 -0.34375q0.59375 -0.34375 0.9375 -0.953125q0.34375 -0.609375 0.546875 -1.71875zm2.447998 3.84375l2.1875 -10.484375l1.296875 0l-2.1875 10.484375l-1.296875 0z" fill-rule="nonzero"/><path fill="#d9d9d9" d="m670.8714 81.1526l0 0c0 -10.222549 8.286987 -18.50956 18.509521 -18.50956l142.79193 0c4.9090576 0 9.617004 1.9501114 13.088257 5.4213257c3.4711914 3.4712143 5.4213257 8.179192 5.4213257 13.088234l0 74.035995c0 10.222549 -8.287048 18.509567 -18.509583 18.509567l-142.79193 0c-10.222534 0 -18.509521 -8.287018 -18.509521 -18.509567z" fill-rule="evenodd"/><path fill="#000000" d="m719.37933 115.754974l3.75 1.1875q-0.859375 3.125 -2.859375 4.640625q-2.0 1.515625 -5.078125 1.515625q-3.796875 0 -6.25 -2.59375q-2.4375 -2.609375 -2.4375 -7.109375q0 -4.765625 2.453125 -7.390625q2.46875 -2.640625 6.46875 -2.640625q3.5 0 5.6875 2.0625q1.3125 1.234375 1.953125 3.515625l-3.8125 0.921875q-0.34375 -1.484375 -1.421875 -2.34375q-1.0625 -0.859375 -2.59375 -0.859375q-2.125 0 -3.453125 1.53125q-1.3125 1.515625 -1.3125 4.921875q0 3.609375 1.296875 5.15625q1.296875 1.53125 3.390625 1.53125q1.53125 0 2.640625 -0.96875q1.109375 -0.984375 1.578125 -3.078125zm10.531555 7.015625l-3.671875 0l0 -13.828125l3.40625 0l0 1.96875q0.875 -1.390625 1.5625 -1.828125q0.703125 -0.453125 1.578125 -0.453125q1.25 0 2.421875 0.703125l-1.140625 3.1875q-0.921875 -0.609375 -1.71875 -0.609375q-0.765625 0 -1.296875 0.421875q-0.53125 0.421875 -0.84375 1.53125q-0.296875 1.109375 -0.296875 4.640625l0 4.265625zm6.85791 -15.703125l0 -3.375l3.671875 0l0 3.375l-3.671875 0zm0 15.703125l0 -13.828125l3.671875 0l0 13.828125l-3.671875 0zm13.749695 -13.828125l0 2.921875l-2.5 0l0 5.5625q0 1.703125 0.0625 1.984375q0.078125 0.28125 0.328125 0.46875q0.265625 0.171875 0.625 0.171875q0.515625 0 1.46875 -0.359375l0.3125 2.84375q-1.265625 0.546875 -2.890625 0.546875q-0.984375 0 -1.78125 -0.328125q-0.796875 -0.328125 -1.171875 -0.859375q-0.359375 -0.53125 -0.5 -1.421875q-0.125 -0.640625 -0.125 -2.578125l0 -6.03125l-1.671875 0l0 -2.921875l1.671875 0l0 -2.734375l3.671875 -2.140625l0 4.875l2.5 0zm10.548645 9.421875l3.640625 0.625q-0.703125 2.0 -2.21875 3.046875q-1.515625 1.046875 -3.796875 1.046875q-3.609375 0 -5.328125 -2.359375q-1.375 -1.890625 -1.375 -4.765625q0 -3.4375 1.796875 -5.375q1.796875 -1.953125 4.546875 -1.953125q3.078125 0 4.859375 2.046875q1.78125 2.03125 1.703125 6.234375l-9.15625 0q0.046875 1.625 0.890625 2.53125q0.84375 0.90625 2.109375 0.90625q0.859375 0 1.4375 -0.46875q0.59375 -0.46875 0.890625 -1.515625zm0.203125 -3.6875q-0.03125 -1.59375 -0.8125 -2.421875q-0.78125 -0.828125 -1.90625 -0.828125q-1.203125 0 -1.984375 0.875q-0.78125 0.875 -0.765625 2.375l5.46875 0zm10.121765 8.09375l-3.671875 0l0 -13.828125l3.40625 0l0 1.96875q0.875 -1.390625 1.5625 -1.828125q0.703125 -0.453125 1.578125 -0.453125q1.25 0 2.421875 0.703125l-1.140625 3.1875q-0.921875 -0.609375 -1.71875 -0.609375q-0.765625 0 -1.296875 0.421875q-0.53125 0.421875 -0.84375 1.53125q-0.296875 1.109375 -0.296875 4.640625l0 4.265625zm6.857971 -15.703125l0 -3.375l3.671875 0l0 3.375l-3.671875 0zm0 15.703125l0 -13.828125l3.671875 0l0 13.828125l-3.671875 0zm6.562195 -7.109375q0 -1.8125 0.890625 -3.515625q0.90625 -1.71875 2.546875 -2.609375q1.65625 -0.90625 3.6875 -0.90625q3.140625 0 5.140625 2.046875q2.0 2.03125 2.0 5.140625q0 3.140625 -2.03125 5.203125q-2.015625 2.0625 -5.078125 2.0625q-1.90625 0 -3.640625 -0.859375q-1.71875 -0.859375 -2.625 -2.515625q-0.890625 -1.65625 -0.890625 -4.046875zm3.75 0.203125q0 2.046875 0.96875 3.140625q0.984375 1.09375 2.421875 1.09375q1.421875 0 2.390625 -1.09375q0.984375 -1.09375 0.984375 -3.171875q0 -2.03125 -0.984375 -3.125q-0.96875 -1.09375 -2.390625 -1.09375q-1.4375 0 -2.421875 1.09375q-0.96875 1.09375 -0.96875 3.15625zm25.95459 6.90625l-3.65625 0l0 -7.046875q0 -2.25 -0.234375 -2.90625q-0.234375 -0.65625 -0.765625 -1.015625q-0.515625 -0.375 -1.265625 -0.375q-0.953125 0 -1.703125 0.53125q-0.75 0.515625 -1.03125 1.375q-0.28125 0.859375 -0.28125 3.171875l0 6.265625l-3.65625 0l0 -13.828125l3.390625 0l0 2.03125q1.8125 -2.34375 4.5625 -2.34375q1.203125 0 2.203125 0.4375q1.015625 0.4375 1.515625 1.125q0.515625 0.671875 0.71875 1.53125q0.203125 0.859375 0.203125 2.453125l0 8.59375z" fill-rule="nonzero"/><path fill="#000000" d="m715.773 145.20248l-0.328125 1.59375l-1.609375 0l0.296875 -1.40625q0.25 -1.25 0.8125 -1.828125q0.5625 -0.59375 1.3125 -0.6875l-0.125 0.625q-0.90625 0.25 -1.234375 1.703125l0.875 0zm-2.484375 0l-0.34375 1.59375l-1.609375 0l0.296875 -1.40625q0.265625 -1.25 0.8125 -1.828125q0.5625 -0.59375 1.328125 -0.6875l-0.125 0.625q-0.921875 0.25 -1.234375 1.703125l0.875 0zm11.34375 5.296875l1.515625 0.203125q-0.71875 1.984375 -2.09375 3.015625q-1.375 1.015625 -3.09375 1.015625q-2.078125 0 -3.3125 -1.28125q-1.21875 -1.28125 -1.21875 -3.65625q0 -3.09375 1.859375 -5.109375q1.65625 -1.8125 4.125 -1.8125q1.8125 0 2.9375 0.984375q1.140625 0.96875 1.3125 2.625l-1.421875 0.125q-0.234375 -1.234375 -0.9375 -1.84375q-0.703125 -0.625 -1.828125 -0.625q-2.09375 0 -3.390625 1.875q-1.125 1.609375 -1.125 3.8125q0 1.765625 0.859375 2.703125q0.875 0.921875 2.265625 0.921875q1.1875 0 2.140625 -0.765625q0.96875 -0.78125 1.40625 -2.1875zm2.6796875 0.875q0 -2.421875 1.4375 -4.015625q1.171875 -1.3125 3.09375 -1.3125q1.5 0 2.40625 0.9375q0.921875 0.9375 0.921875 2.53125q0 1.421875 -0.578125 2.65625q-0.578125 1.234375 -1.640625 1.890625q-1.0625 0.65625 -2.25 0.65625q-0.96875 0 -1.765625 -0.40625q-0.78125 -0.421875 -1.203125 -1.171875q-0.421875 -0.765625 -0.421875 -1.765625zm1.421875 -0.140625q0 1.171875 0.5625 1.78125q0.5625 0.609375 1.421875 0.609375q0.453125 0 0.890625 -0.1875q0.453125 -0.1875 0.828125 -0.5625q0.390625 -0.375 0.65625 -0.84375q0.28125 -0.484375 0.4375 -1.046875q0.25 -0.765625 0.25 -1.484375q0 -1.125 -0.578125 -1.734375q-0.5625 -0.625 -1.421875 -0.625q-0.65625 0 -1.203125 0.3125q-0.546875 0.3125 -1.0 0.921875q-0.4375 0.609375 -0.640625 1.421875q-0.203125 0.8125 -0.203125 1.4375zm7.2265625 3.296875l1.734375 -8.296875l1.28125 0l-0.296875 1.4375q0.828125 -0.84375 1.546875 -1.234375q0.734375 -0.390625 1.5 -0.390625q1.0 0 1.578125 0.546875q0.578125 0.546875 0.578125 1.453125q0 0.46875 -0.203125 1.453125l-1.0625 5.03125l-1.40625 0l1.09375 -5.265625q0.171875 -0.765625 0.171875 -1.125q0 -0.421875 -0.296875 -0.671875q-0.28125 -0.265625 -0.8125 -0.265625q-1.09375 0 -1.9375 0.78125q-0.84375 0.78125 -1.25 2.6875l-0.796875 3.859375l-1.421875 0zm14.6328125 -3.03125l1.40625 0.15625q-0.53125 1.546875 -1.515625 2.3125q-0.96875 0.75 -2.21875 0.75q-1.359375 0 -2.203125 -0.875q-0.828125 -0.875 -0.828125 -2.453125q0 -1.359375 0.53125 -2.671875q0.546875 -1.3125 1.546875 -1.984375q1.0 -0.6875 2.296875 -0.6875q1.328125 0 2.109375 0.75q0.78125 0.75 0.78125 2.0l-1.390625 0.09375q0 -0.796875 -0.453125 -1.234375q-0.453125 -0.453125 -1.1875 -0.453125q-0.84375 0 -1.46875 0.546875q-0.625 0.53125 -0.984375 1.640625q-0.359375 1.09375 -0.359375 2.109375q0 1.0625 0.46875 1.59375q0.46875 0.53125 1.15625 0.53125q0.6875 0 1.3125 -0.515625q0.640625 -0.53125 1.0 -1.609375zm4.28125 -6.828125l0.328125 -1.59375l1.40625 0l-0.328125 1.59375l-1.40625 0zm-2.0625 9.859375l1.734375 -8.296875l1.40625 0l-1.734375 8.296875l-1.40625 0zm3.7421875 -2.84375l1.40625 -0.078125q0 0.609375 0.1875 1.046875q0.1875 0.421875 0.6875 0.703125q0.515625 0.265625 1.1875 0.265625q0.9375 0 1.40625 -0.375q0.46875 -0.375 0.46875 -0.890625q0 -0.359375 -0.28125 -0.6875q-0.296875 -0.328125 -1.421875 -0.8125q-1.109375 -0.484375 -1.421875 -0.671875q-0.53125 -0.328125 -0.796875 -0.75q-0.265625 -0.4375 -0.265625 -1.0q0 -0.984375 0.78125 -1.6875q0.78125 -0.703125 2.1875 -0.703125q1.5625 0 2.375 0.71875q0.828125 0.71875 0.859375 1.90625l-1.390625 0.09375q-0.03125 -0.75 -0.53125 -1.1875q-0.5 -0.4375 -1.40625 -0.4375q-0.734375 0 -1.140625 0.34375q-0.40625 0.328125 -0.40625 0.71875q0 0.390625 0.34375 0.6875q0.234375 0.203125 1.21875 0.625q1.625 0.703125 2.046875 1.109375q0.671875 0.640625 0.671875 1.578125q0 0.609375 -0.390625 1.203125q-0.375 0.59375 -1.15625 0.953125q-0.765625 0.359375 -1.828125 0.359375q-1.4375 0 -2.4375 -0.71875q-1.015625 -0.703125 -0.953125 -2.3125zm13.953125 0.015625l1.375 0.140625q-0.296875 1.03125 -1.359375 1.953125q-1.0625 0.921875 -2.546875 0.921875q-0.921875 0 -1.6875 -0.421875q-0.765625 -0.4375 -1.171875 -1.25q-0.40625 -0.8125 -0.40625 -1.84375q0 -1.359375 0.625 -2.640625q0.640625 -1.28125 1.640625 -1.890625q1.0 -0.625 2.15625 -0.625q1.484375 0 2.375 0.921875q0.890625 0.921875 0.890625 2.515625q0 0.609375 -0.109375 1.25l-6.109375 0q-0.03125 0.234375 -0.03125 0.4375q0 1.15625 0.53125 1.78125q0.53125 0.609375 1.3125 0.609375q0.71875 0 1.421875 -0.46875q0.703125 -0.484375 1.09375 -1.390625zm-4.109375 -2.046875l4.65625 0q0.015625 -0.21875 0.015625 -0.3125q0 -1.0625 -0.53125 -1.625q-0.53125 -0.578125 -1.375 -0.578125q-0.90625 0 -1.65625 0.625q-0.734375 0.625 -1.109375 1.890625zm6.9140625 4.875l1.734375 -8.296875l1.28125 0l-0.296875 1.4375q0.828125 -0.84375 1.546875 -1.234375q0.734375 -0.390625 1.5 -0.390625q1.0 0 1.578125 0.546875q0.578125 0.546875 0.578125 1.453125q0 0.46875 -0.203125 1.453125l-1.0625 5.03125l-1.40625 0l1.09375 -5.265625q0.171875 -0.765625 0.171875 -1.125q0 -0.421875 -0.296875 -0.671875q-0.28125 -0.265625 -0.8125 -0.265625q-1.09375 0 -1.9375 0.78125q-0.84375 0.78125 -1.25 2.6875l-0.796875 3.859375l-1.421875 0zm14.9921875 -2.828125l1.375 0.140625q-0.296875 1.03125 -1.359375 1.953125q-1.0625 0.921875 -2.546875 0.921875q-0.921875 0 -1.6875 -0.421875q-0.765625 -0.4375 -1.171875 -1.25q-0.40625 -0.8125 -0.40625 -1.84375q0 -1.359375 0.625 -2.640625q0.640625 -1.28125 1.640625 -1.890625q1.0 -0.625 2.15625 -0.625q1.484375 0 2.375 0.921875q0.890625 0.921875 0.890625 2.515625q0 0.609375 -0.109375 1.25l-6.109375 0q-0.03125 0.234375 -0.03125 0.4375q0 1.15625 0.53125 1.78125q0.53125 0.609375 1.3125 0.609375q0.71875 0 1.421875 -0.46875q0.703125 -0.484375 1.09375 -1.390625zm-4.109375 -2.046875l4.65625 0q0.015625 -0.21875 0.015625 -0.3125q0 -1.0625 -0.53125 -1.625q-0.53125 -0.578125 -1.375 -0.578125q-0.90625 0 -1.65625 0.625q-0.734375 0.625 -1.109375 1.890625zm7.0546875 2.03125l1.40625 -0.078125q0 0.609375 0.1875 1.046875q0.1875 0.421875 0.6875 0.703125q0.515625 0.265625 1.1875 0.265625q0.9375 0 1.40625 -0.375q0.46875 -0.375 0.46875 -0.890625q0 -0.359375 -0.28125 -0.6875q-0.296875 -0.328125 -1.421875 -0.8125q-1.109375 -0.484375 -1.421875 -0.671875q-0.53125 -0.328125 -0.796875 -0.75q-0.265625 -0.4375 -0.265625 -1.0q0 -0.984375 0.78125 -1.6875q0.78125 -0.703125 2.1875 -0.703125q1.5625 0 2.375 0.71875q0.828125 0.71875 0.859375 1.90625l-1.390625 0.09375q-0.03125 -0.75 -0.53125 -1.1875q-0.5 -0.4375 -1.40625 -0.4375q-0.734375 0 -1.140625 0.34375q-0.40625 0.328125 -0.40625 0.71875q0 0.390625 0.34375 0.6875q0.234375 0.203125 1.21875 0.625q1.625 0.703125 2.046875 1.109375q0.671875 0.640625 0.671875 1.578125q0 0.609375 -0.390625 1.203125q-0.375 0.59375 -1.15625 0.953125q-0.765625 0.359375 -1.828125 0.359375q-1.4375 0 -2.4375 -0.71875q-1.015625 -0.703125 -0.953125 -2.3125zm8.0 0l1.40625 -0.078125q0 0.609375 0.1875 1.046875q0.1875 0.421875 0.6875 0.703125q0.515625 0.265625 1.1875 0.265625q0.9375 0 1.40625 -0.375q0.46875 -0.375 0.46875 -0.890625q0 -0.359375 -0.28125 -0.6875q-0.296875 -0.328125 -1.421875 -0.8125q-1.109375 -0.484375 -1.421875 -0.671875q-0.53125 -0.328125 -0.796875 -0.75q-0.265625 -0.4375 -0.265625 -1.0q0 -0.984375 0.78125 -1.6875q0.78125 -0.703125 2.1875 -0.703125q1.5625 0 2.375 0.71875q0.828125 0.71875 0.859375 1.90625l-1.390625 0.09375q-0.03125 -0.75 -0.53125 -1.1875q-0.5 -0.4375 -1.40625 -0.4375q-0.734375 0 -1.140625 0.34375q-0.40625 0.328125 -0.40625 0.71875q0 0.390625 0.34375 0.6875q0.234375 0.203125 1.21875 0.625q1.625 0.703125 2.046875 1.109375q0.671875 0.640625 0.671875 1.578125q0 0.609375 -0.390625 1.203125q-0.375 0.59375 -1.15625 0.953125q-0.765625 0.359375 -1.828125 0.359375q-1.4375 0 -2.4375 -0.71875q-1.015625 -0.703125 -0.953125 -2.3125zm9.484375 -6.96875l0.34375 -1.59375l1.609375 0l-0.296875 1.40625q-0.265625 1.25 -0.828125 1.84375q-0.546875 0.578125 -1.3125 0.671875l0.140625 -0.625q0.921875 -0.25 1.21875 -1.703125l-0.875 0zm2.578125 0l0.34375 -1.59375l1.609375 0l-0.296875 1.40625q-0.265625 1.25 -0.828125 1.84375q-0.546875 0.578125 -1.3125 0.671875l0.125 -0.625q0.921875 -0.25 1.234375 -1.703125l-0.875 0z" fill-rule="nonzero"/><path fill="#000000" fill-opacity="0.0" d="m186.75197 261.14435l41.51181 0" fill-rule="evenodd"/><path stroke="#595959" stroke-width="1.0" stroke-linejoin="round" stroke-linecap="butt" d="m186.75197 261.14435l35.51181 0" fill-rule="evenodd"/><path fill="#595959" stroke="#595959" stroke-width="1.0" stroke-linecap="butt" d="m222.26378 262.79608l4.538101 -1.6517334l-4.538101 -1.6517334z" fill-rule="evenodd"/><path fill="#000000" fill-opacity="0.0" d="m408.06168 261.14435l41.51181 0" fill-rule="evenodd"/><path stroke="#595959" stroke-width="1.0" stroke-linejoin="round" stroke-linecap="butt" d="m408.06168 261.14435l35.51181 0" fill-rule="evenodd"/><path fill="#595959" stroke="#595959" stroke-width="1.0" stroke-linecap="butt" d="m443.5735 262.79608l4.5381165 -1.6517334l-4.5381165 -1.6517334z" fill-rule="evenodd"/><path fill="#000000" fill-opacity="0.0" d="m629.3714 261.14435l41.51178 0" fill-rule="evenodd"/><path stroke="#595959" stroke-width="1.0" stroke-linejoin="round" stroke-linecap="butt" d="m629.3714 261.14435l35.51178 0" fill-rule="evenodd"/><path fill="#595959" stroke="#595959" stroke-width="1.0" stroke-linecap="butt" d="m664.8832 262.79608l4.538147 -1.6517334l-4.538147 -1.6517334z" fill-rule="evenodd"/><path fill="#000000" fill-opacity="0.0" d="m760.7769 173.69817l0 31.905502" fill-rule="evenodd"/><path stroke="#595959" stroke-width="1.0" stroke-linejoin="round" stroke-linecap="butt" d="m760.7769 173.69817l0 25.905502" fill-rule="evenodd"/><path fill="#595959" stroke="#595959" stroke-width="1.0" stroke-linecap="butt" d="m759.1252 199.60367l1.6517334 4.538101l1.6517334 -4.538101z" fill-rule="evenodd"/><path fill="#000000" fill-opacity="0.0" d="m760.7769 316.6719l0 31.905518" fill-rule="evenodd"/><path stroke="#595959" stroke-width="1.0" stroke-linejoin="round" stroke-linecap="butt" d="m760.7769 316.6719l0 25.905518" fill-rule="evenodd"/><path fill="#595959" stroke="#595959" stroke-width="1.0" stroke-linecap="butt" d="m759.1252 342.57742l1.6517334 4.5381165l1.6517334 -4.5381165z" fill-rule="evenodd"/><path fill="#d9d9d9" d="m670.8714 369.97412l0 0c0 -10.222534 8.286987 -18.509552 18.509521 -18.509552l142.79193 0c4.9090576 0 9.617004 1.9501038 13.088257 5.4213257c3.4711914 3.471222 5.4213257 8.179199 5.4213257 13.088226l0 74.03601c0 10.222534 -8.287048 18.509552 -18.509583 18.509552l-142.79193 0c-10.222534 0 -18.509521 -8.287018 -18.509521 -18.509552z" fill-rule="evenodd"/><path fill="#000000" d="m724.7028 405.389l3.75 -0.375q0.328125 1.890625 1.359375 2.78125q1.046875 0.875 2.796875 0.875q1.859375 0 2.796875 -0.78125q0.953125 -0.78125 0.953125 -1.84375q0 -0.671875 -0.40625 -1.140625q-0.390625 -0.484375 -1.375 -0.828125q-0.671875 -0.234375 -3.09375 -0.84375q-3.09375 -0.765625 -4.34375 -1.890625q-1.75 -1.5625 -1.75 -3.828125q0 -1.46875 0.828125 -2.734375q0.828125 -1.265625 2.375 -1.921875q1.5625 -0.671875 3.75 -0.671875q3.59375 0 5.40625 1.578125q1.828125 1.578125 1.921875 4.203125l-3.859375 0.171875q-0.25 -1.46875 -1.0625 -2.109375q-0.8125 -0.65625 -2.4375 -0.65625q-1.6875 0 -2.625 0.6875q-0.609375 0.453125 -0.609375 1.1875q0 0.671875 0.5625 1.15625q0.734375 0.609375 3.546875 1.28125q2.8125 0.65625 4.15625 1.375q1.34375 0.703125 2.109375 1.9375q0.765625 1.234375 0.765625 3.03125q0 1.640625 -0.921875 3.078125q-0.90625 1.4375 -2.578125 2.140625q-1.65625 0.6875 -4.140625 0.6875q-3.625 0 -5.5625 -1.671875q-1.9375 -1.671875 -2.3125 -4.875zm30.779541 -3.53125l-3.609375 0.65625q-0.1875 -1.09375 -0.828125 -1.640625q-0.640625 -0.546875 -1.671875 -0.546875q-1.359375 0 -2.171875 0.953125q-0.8125 0.9375 -0.8125 3.15625q0 2.453125 0.8125 3.46875q0.828125 1.015625 2.21875 1.015625q1.046875 0 1.703125 -0.59375q0.671875 -0.59375 0.953125 -2.03125l3.578125 0.609375q-0.546875 2.46875 -2.140625 3.734375q-1.59375 1.265625 -4.25 1.265625q-3.03125 0 -4.84375 -1.90625q-1.796875 -1.921875 -1.796875 -5.296875q0 -3.4375 1.796875 -5.34375q1.8125 -1.90625 4.90625 -1.90625q2.515625 0 4.0 1.09375q1.5 1.078125 2.15625 3.3125zm1.9186401 2.625q0 -1.8125 0.890625 -3.515625q0.90625 -1.71875 2.546875 -2.609375q1.65625 -0.90625 3.6875 -0.90625q3.140625 0 5.140625 2.046875q2.0 2.03125 2.0 5.140625q0 3.140625 -2.03125 5.203125q-2.015625 2.0625 -5.078125 2.0625q-1.90625 0 -3.640625 -0.859375q-1.71875 -0.859375 -2.625 -2.515625q-0.890625 -1.65625 -0.890625 -4.046875zm3.75 0.203125q0 2.046875 0.96875 3.140625q0.984375 1.09375 2.421875 1.09375q1.421875 0 2.390625 -1.09375q0.984375 -1.09375 0.984375 -3.171875q0 -2.03125 -0.984375 -3.125q-0.96875 -1.09375 -2.390625 -1.09375q-1.4375 0 -2.421875 1.09375q-0.96875 1.09375 -0.96875 3.15625zm16.89209 6.90625l-3.671875 0l0 -13.828125l3.40625 0l0 1.96875q0.875 -1.390625 1.5625 -1.828125q0.703125 -0.453125 1.578125 -0.453125q1.25 0 2.421875 0.703125l-1.140625 3.1875q-0.921875 -0.609375 -1.71875 -0.609375q-0.765625 0 -1.296875 0.421875q-0.53125 0.421875 -0.84375 1.53125q-0.296875 1.109375 -0.296875 4.640625l0 4.265625zm14.873535 -4.40625l3.640625 0.625q-0.703125 2.0 -2.21875 3.046875q-1.515625 1.046875 -3.796875 1.046875q-3.609375 0 -5.328125 -2.359375q-1.375 -1.890625 -1.375 -4.765625q0 -3.4375 1.796875 -5.375q1.796875 -1.953125 4.546875 -1.953125q3.078125 0 4.859375 2.046875q1.78125 2.03125 1.703125 6.234375l-9.15625 0q0.046875 1.625 0.890625 2.53125q0.84375 0.90625 2.109375 0.90625q0.859375 0 1.4375 -0.46875q0.59375 -0.46875 0.890625 -1.515625zm0.203125 -3.6875q-0.03125 -1.59375 -0.8125 -2.421875q-0.78125 -0.828125 -1.90625 -0.828125q-1.203125 0 -1.984375 0.875q-0.78125 0.875 -0.765625 2.375l5.46875 0z" fill-rule="nonzero"/><path fill="#000000" d="m737.10895 434.024l-0.328125 1.59375l-1.609375 0l0.296875 -1.40625q0.25 -1.25 0.8125 -1.828125q0.5625 -0.59375 1.3125 -0.6875l-0.125 0.625q-0.90625 0.25 -1.234375 1.703125l0.875 0zm-2.484375 0l-0.34375 1.59375l-1.609375 0l0.296875 -1.40625q0.265625 -1.25 0.8125 -1.828125q0.5625 -0.59375 1.328125 -0.6875l-0.125 0.625q-0.921875 0.25 -1.234375 1.703125l0.875 0zm2.5625 6.328125l1.375 -0.171875q0.15625 1.203125 0.6875 1.71875q0.546875 0.515625 1.40625 0.515625q1.046875 0 1.8125 -0.75q0.765625 -0.75 0.765625 -1.71875q0 -0.84375 -0.578125 -1.390625q-0.5625 -0.546875 -1.53125 -0.546875q-0.109375 0 -0.453125 0.03125l0.25 -1.1875q0.203125 0.03125 0.390625 0.03125q1.203125 0 1.859375 -0.578125q0.65625 -0.59375 0.65625 -1.453125q0 -0.796875 -0.546875 -1.328125q-0.53125 -0.546875 -1.296875 -0.546875q-0.765625 0 -1.375 0.5625q-0.59375 0.546875 -0.765625 1.546875l-1.390625 -0.28125q0.34375 -1.40625 1.3125 -2.171875q0.984375 -0.78125 2.3125 -0.78125q1.40625 0 2.28125 0.859375q0.875 0.84375 0.875 2.078125q0 0.90625 -0.484375 1.59375q-0.46875 0.671875 -1.40625 1.109375q0.671875 0.40625 1.0 0.96875q0.328125 0.5625 0.328125 1.28125q0 1.546875 -1.15625 2.6875q-1.140625 1.125 -2.75 1.125q-1.546875 0 -2.515625 -0.875q-0.953125 -0.875 -1.0625 -2.328125zm8.9453125 3.0l0.34375 -1.609375l1.59375 0l-0.34375 1.609375l-1.59375 0zm5.8515625 0q0.1875 -1.15625 0.796875 -2.78125q0.71875 -1.96875 1.890625 -3.890625q1.1875 -1.9375 2.640625 -3.328125l-5.71875 0l0.28125 -1.296875l7.3125 0l-0.265625 1.296875q-1.859375 1.625 -3.25 4.203125q-1.625 2.984375 -2.21875 5.796875l-1.46875 0zm5.7578125 0.1875l6.15625 -11.84375l1.234375 0l-6.15625 11.84375l-1.234375 0zm6.3828125 -3.46875l1.4375 -0.140625q-0.015625 0.3125 -0.015625 0.375q0 0.515625 0.25 1.046875q0.265625 0.515625 0.71875 0.796875q0.453125 0.265625 0.953125 0.265625q0.65625 0 1.328125 -0.453125q0.6875 -0.453125 1.109375 -1.3125q0.421875 -0.875 0.421875 -1.71875q0 -0.96875 -0.578125 -1.546875q-0.5625 -0.578125 -1.484375 -0.578125q-0.609375 0 -1.171875 0.296875q-0.546875 0.296875 -1.015625 0.890625l-1.234375 -0.078125l1.71875 -5.859375l5.59375 0l-0.265625 1.296875l-4.359375 0l-0.859375 2.90625q0.484375 -0.34375 1.0 -0.515625q0.515625 -0.1875 1.046875 -0.1875q1.3125 0 2.15625 0.875q0.84375 0.859375 0.84375 2.375q0 1.3125 -0.578125 2.4375q-0.578125 1.109375 -1.59375 1.71875q-1.0 0.59375 -2.171875 0.59375q-0.984375 0 -1.75 -0.453125q-0.75 -0.453125 -1.140625 -1.234375q-0.375 -0.78125 -0.375 -1.5625q0 -0.078125 0.015625 -0.234375zm8.6953125 3.28125l0.34375 -1.609375l1.59375 0l-0.34375 1.609375l-1.59375 0zm4.6640625 -3.765625q0 -1.453125 0.421875 -2.953125q0.4375 -1.5 0.96875 -2.390625q0.53125 -0.90625 1.09375 -1.40625q0.578125 -0.515625 1.125 -0.75q0.5625 -0.234375 1.234375 -0.234375q1.3125 0 2.1875 0.984375q0.875 0.96875 0.875 2.8125q0 1.890625 -0.609375 3.75q-0.71875 2.203125 -2.0 3.3125q-0.984375 0.84375 -2.234375 0.84375q-1.296875 0 -2.1875 -1.015625q-0.875 -1.015625 -0.875 -2.953125zm1.359375 0.359375q0 1.0625 0.359375 1.65625q0.46875 0.8125 1.40625 0.8125q0.828125 0 1.5 -0.734375q0.96875 -1.046875 1.453125 -3.0625q0.484375 -2.03125 0.484375 -3.3125q0 -1.234375 -0.46875 -1.78125q-0.46875 -0.546875 -1.25 -0.546875q-0.5625 0 -1.046875 0.296875q-0.484375 0.28125 -0.9375 0.984375q-0.625 1.0 -1.09375 2.96875q-0.40625 1.6875 -0.40625 2.71875zm8.5546875 -6.40625l0.34375 -1.59375l1.609375 0l-0.296875 1.40625q-0.265625 1.25 -0.828125 1.84375q-0.546875 0.578125 -1.3125 0.671875l0.140625 -0.625q0.921875 -0.25 1.21875 -1.703125l-0.875 0zm2.578125 0l0.34375 -1.59375l1.609375 0l-0.296875 1.40625q-0.265625 1.25 -0.828125 1.84375q-0.546875 0.578125 -1.3125 0.671875l0.125 -0.625q0.921875 -0.25 1.234375 -1.703125l-0.875 0z" fill-rule="nonzero"/></g></svg>